<svg width="56" height="57" viewBox="0 0 56 57" fill="none" xmlns="http://www.w3.org/2000/svg">
<path d="M14.2484 11.9711C14.2484 11.4697 14.2484 11.056 14.2484 10.6298C14.2484 9.78995 14.5869 9.45148 15.4142 9.45148C16.6552 9.45148 17.8962 9.46402 19.1247 9.43895C19.3002 9.43895 19.5509 9.31359 19.6512 9.1757C21.9327 6.20478 26.107 6.20478 28.4136 9.1757C28.5139 9.31359 28.727 9.41388 28.9025 9.43895C30.0181 9.56431 30.9081 9.27599 31.8608 8.51132C35.1953 5.85378 38.9936 5.28968 42.9548 6.89423C46.9286 8.49878 49.2602 11.5449 49.8619 15.7945C50.5388 20.5078 48.1195 25.0457 43.8824 27.2144C43.544 27.3899 43.4312 27.5904 43.4312 27.9665C43.4437 34.7232 43.4437 41.4673 43.4437 48.224C43.4437 50.4804 42.2027 52.2353 40.197 52.7994C39.7332 52.9248 39.2443 52.9875 38.7554 52.9875C28.2255 53 17.6957 53 7.16581 53C6.31339 53 6 52.6866 6 51.8467C6 38.9476 6 26.0611 6 13.162C6 12.2845 6.31339 11.9837 7.19088 11.9837C9.34699 11.9837 11.5156 11.9837 13.6718 11.9837C13.8473 11.9711 14.0228 11.9711 14.2484 11.9711ZM41.5884 28.1169C38.0659 28.9067 34.8694 28.3551 32.0363 26.2115C29.2033 24.0805 27.7743 21.1597 27.5612 17.6121C26.9594 17.6121 26.3828 17.6121 25.8062 17.6121C22.3589 17.6121 18.9116 17.6121 15.4643 17.6121C14.5367 17.6121 14.2359 17.3113 14.2359 16.3711C14.2359 15.6566 14.2359 14.9295 14.2359 14.215C14.2359 14.1022 14.2108 13.9768 14.1983 13.8765C12.0672 13.8765 9.97377 13.8765 7.85526 13.8765C7.85526 26.2993 7.85526 38.6969 7.85526 51.1573C8.04329 51.1573 8.21879 51.1573 8.38176 51.1573C18.4603 51.1573 28.5264 51.1573 38.605 51.1573C40.5104 51.1573 41.5759 50.0918 41.5759 48.1989C41.5759 41.6929 41.5759 35.1995 41.5759 28.6936C41.5884 28.5055 41.5884 28.3426 41.5884 28.1169ZM29.4164 17.2737C29.3537 22.3506 33.5281 26.5751 38.6551 26.6503C43.8323 26.7129 48.0944 22.5511 48.1445 17.374C48.1947 12.2845 44.0454 7.99736 39.0187 7.93468C33.6785 7.85947 29.4791 11.9461 29.4164 17.2737ZM16.1162 15.7694C16.3168 15.7694 16.4672 15.7694 16.6176 15.7694C20.1401 15.7694 23.6626 15.7569 27.1851 15.7819C27.5862 15.7819 27.7993 15.6942 27.7868 15.2554C27.7868 15.0423 27.8495 14.8167 27.9247 14.6161C28.3133 13.5255 28.7144 12.4349 29.1281 11.3193C28.8899 11.3193 28.564 11.3067 28.2506 11.3193C27.7617 11.3444 27.4233 11.1312 27.1851 10.705C26.5082 9.46402 25.4552 8.7871 24.0261 8.7871C22.6096 8.7871 21.5441 9.46402 20.8797 10.705C20.6415 11.1438 20.3031 11.3193 19.8142 11.3193C18.7361 11.3067 17.6581 11.3193 16.58 11.3193C16.4296 11.3193 16.2792 11.3193 16.1287 11.3193C16.1162 12.811 16.1162 14.2526 16.1162 15.7694Z" fill="#F1897B"/>
<path d="M29.7923 31.8154C27.7616 31.8154 25.7183 31.8154 23.6875 31.8154C23.0482 31.8154 22.622 31.4268 22.6345 30.8752C22.6471 30.449 22.9354 30.098 23.3616 30.0103C23.5496 29.9727 23.7377 29.9727 23.9257 29.9727C27.8493 29.9727 31.7855 29.9727 35.7091 29.9727C35.8219 29.9727 35.9348 29.9727 36.0351 29.9727C36.6242 30.0103 37.0003 30.3863 36.9878 30.9128C36.9752 31.4393 36.5866 31.8028 35.9974 31.8028C33.9165 31.8154 31.8607 31.8154 29.7923 31.8154Z" fill="#F1897B"/>
<path d="M29.8425 42.62C31.8983 42.62 33.9416 42.62 35.9975 42.62C36.5992 42.62 36.9752 42.9835 36.9878 43.51C37.0003 44.0365 36.6242 44.4125 36.0351 44.4501C35.9222 44.4627 35.822 44.4501 35.7091 44.4501C34.9319 44.4501 34.1422 44.4501 33.365 44.4501C30.2687 44.4501 27.1724 44.4501 24.0636 44.4501C23.9383 44.4501 23.8129 44.4501 23.6875 44.4501C23.0357 44.4251 22.622 44.049 22.6346 43.4974C22.6471 42.9584 23.0608 42.6074 23.6875 42.6074C25.7308 42.6074 27.7867 42.62 29.8425 42.62Z" fill="#F1897B"/>
<path d="M29.7924 38.1455C27.8369 38.1455 25.8813 38.1455 23.9258 38.1455C23.7377 38.1455 23.5497 38.1455 23.3617 38.1204C22.9355 38.0452 22.6221 37.6566 22.6221 37.2178C22.6221 36.7791 22.948 36.403 23.3867 36.3278C23.5246 36.3027 23.6625 36.3027 23.8129 36.3027C27.7993 36.3027 31.7981 36.3027 35.7844 36.3027C35.9348 36.3027 36.0978 36.3027 36.2482 36.3278C36.6619 36.403 36.9627 36.7666 36.9753 37.1928C36.9878 37.644 36.6995 38.0326 36.2733 38.1204C36.0727 38.158 35.8722 38.158 35.659 38.158C33.716 38.1455 31.7605 38.1455 29.7924 38.1455Z" fill="#F1897B"/>
<path d="M14.3612 36.4665C15.8154 35.1002 17.2444 33.7839 18.6484 32.4552C19.1373 31.9913 19.6888 31.9287 20.09 32.3423C20.4786 32.756 20.4034 33.3076 19.9019 33.7714C18.2723 35.2882 16.6552 36.805 15.0256 38.3218C14.3236 38.9862 13.8097 38.9235 13.2581 38.1212C12.8444 37.5195 12.4182 36.9178 12.0045 36.3036C11.6159 35.7395 11.6786 35.1754 12.155 34.862C12.6313 34.5486 13.1453 34.699 13.5464 35.2757C13.8222 35.6643 14.0729 36.0403 14.3612 36.4665Z" fill="#F1897B"/>
<path d="M14.3611 43.3845C15.7024 42.131 17.0312 40.89 18.3599 39.6615C18.4728 39.5487 18.5856 39.4358 18.7109 39.3481C19.1246 39.0347 19.6511 39.0723 19.9896 39.4233C20.328 39.7868 20.328 40.3008 19.9645 40.6894C19.7514 40.915 19.5132 41.1281 19.2876 41.3412C17.8711 42.6575 16.4545 43.9863 15.0255 45.3025C14.336 45.9418 13.8221 45.8791 13.2956 45.1145C12.8568 44.4877 12.4181 43.8609 11.9919 43.2216C11.6409 42.7076 11.7161 42.1686 12.1548 41.8552C12.6061 41.5293 13.1452 41.6546 13.5212 42.1811C13.797 42.5697 14.0728 42.9709 14.3611 43.3845Z" fill="#F1897B"/>
<path d="M14.3988 29.457C15.7902 28.1533 17.1942 26.8621 18.5857 25.5584C19.0244 25.1447 19.5634 25.0821 19.952 25.4581C20.3406 25.8467 20.3281 26.4108 19.8894 26.837C18.9241 27.7521 17.9464 28.6547 16.9811 29.5698C16.3167 30.184 15.6524 30.8108 14.988 31.4251C14.3737 31.9892 13.8347 31.9265 13.3458 31.237C12.9196 30.6353 12.5059 30.0336 12.0797 29.4319C11.6535 28.8302 11.6911 28.2786 12.1549 27.9402C12.6438 27.6017 13.1578 27.7396 13.584 28.3538C13.8222 28.7048 14.0729 29.0433 14.311 29.3943C14.311 29.4068 14.3487 29.4194 14.3988 29.457Z" fill="#F1897B"/>
<path d="M38.0034 23.2159C37.4393 23.1281 36.9129 23.103 36.3989 22.9651C34.832 22.5389 33.779 21.2478 33.7664 19.8062C33.7664 19.2045 34.0924 18.8033 34.6188 18.7657C35.1328 18.7281 35.5214 19.0917 35.5966 19.6934C35.6969 20.5709 36.3613 21.16 37.3641 21.2728C37.5647 21.2979 37.7653 21.2728 38.0034 21.2728C38.0034 20.1822 38.0034 19.1042 38.0034 18.0011C37.4268 17.8757 36.8502 17.7503 36.2735 17.6375C35.0576 17.3868 34.2302 16.6848 33.8918 15.494C33.5533 14.3031 33.9043 13.2626 34.7818 12.4102C35.4838 11.7333 36.3488 11.3948 37.314 11.3321C37.5271 11.3196 37.7527 11.3321 37.853 11.3321C38.0411 10.8809 38.1664 10.4797 38.3795 10.1538C38.4673 10.0159 38.7681 9.9407 38.9687 9.9407C39.5579 9.91563 39.7835 10.2666 39.9089 11.1692C40.661 11.4199 41.4006 11.5703 42.0524 11.9088C43.1054 12.4478 43.7197 13.3504 43.7698 14.5789C43.7949 15.1555 43.4564 15.5441 42.955 15.5942C42.4034 15.6444 42.0274 15.3185 41.9521 14.7167C41.8143 13.764 41.0997 13.2125 39.9214 13.1999C39.9214 14.2905 39.9214 15.3686 39.9214 16.4968C40.3476 16.5845 40.7863 16.6974 41.2251 16.7726C42.5664 17.0233 43.4439 17.8005 43.7197 19.1293C43.9954 20.4956 43.494 21.6364 42.3407 22.376C41.7641 22.7395 41.0496 22.8774 40.3852 23.103C40.2473 23.1532 40.0843 23.1406 39.9339 23.1532C39.7584 24.3566 39.5328 24.7076 38.9185 24.6825C38.3168 24.6324 38.0661 24.2438 38.0034 23.2159ZM38.0034 13.1874C37.1636 13.0746 36.4365 13.3002 35.9852 13.7891C35.371 14.4535 35.5465 15.4313 36.3613 15.7071C36.8878 15.8826 37.4393 15.9578 38.0034 16.0831C38.0034 15.0803 38.0034 14.1526 38.0034 13.1874ZM39.8963 21.2603C40.9869 21.2979 41.902 20.621 41.9396 19.7686C41.9772 18.9287 41.2502 18.4523 39.8963 18.4273C39.8963 19.3549 39.8963 20.2951 39.8963 21.2603Z" fill="#F1897B"/>
</svg>
