<svg width="56" height="57" viewBox="0 0 56 57" fill="none" xmlns="http://www.w3.org/2000/svg">
<g clip-path="url(#clip0_48_503)">
<path d="M3.56723 6.43037C4.4488 6.43037 5.2884 6.43037 6.15597 6.43037C6.23993 4.69858 6.84164 3.25291 8.08703 2.18371C9.08055 1.32535 10.228 0.933813 11.5014 1.00911C13.7543 1.14464 16.0911 3.01196 16.273 6.40025C17.1126 6.40025 17.9662 6.40025 18.8618 6.40025C18.6379 8.83982 18.414 11.2041 18.2041 13.6135C19.5195 13.6135 20.7928 13.6135 22.1082 13.6135C22.1082 17.2428 22.1082 20.8268 22.1082 24.441C22.6959 24.441 23.2276 24.441 23.7874 24.441C23.7874 16.6404 23.7874 8.85488 23.7874 1.03923C24.3471 1.03923 24.8788 1.03923 25.4526 1.03923C25.4526 9.42712 25.4526 17.8301 25.4526 26.2632C17.6444 26.2632 9.83618 26.2632 2 26.2632C2 25.6909 2 25.1337 2 24.5012C3.06348 24.5012 4.11297 24.5012 5.24642 24.5012C4.68669 18.4776 4.14095 12.4992 3.56723 6.43037ZM5.42833 8.28264C5.93208 13.6888 6.43584 19.08 6.93959 24.4711C8.66075 24.4711 10.3399 24.4711 12.0611 24.4711C12.0611 20.857 12.0611 17.2729 12.0611 13.6587C13.5584 13.6587 15.0136 13.6587 16.4969 13.6587C16.6648 11.8366 16.8328 10.0596 17.0007 8.23746C16.7488 8.23746 16.5669 8.23746 16.399 8.23746C16.259 8.23746 16.1191 8.23746 15.9792 8.23746C15.8952 8.43323 15.8253 8.59888 15.7413 8.76452C14.8177 10.677 13.3625 11.7613 11.3614 11.8215C9.30444 11.8818 7.77918 10.8577 6.77167 8.94524C6.36587 8.17722 6.37986 8.17722 5.42833 8.28264ZM20.415 24.4711C20.415 21.4593 20.415 18.4776 20.415 15.511C18.1761 15.511 15.9652 15.511 13.7543 15.511C13.7543 18.5228 13.7543 21.4894 13.7543 24.4711C15.9792 24.4711 18.1761 24.4711 20.415 24.4711ZM14.5799 6.44543C14.5799 4.44257 13.0826 2.8162 11.2215 2.8162C9.38839 2.8162 7.87713 4.41246 7.86314 6.38519C7.84915 8.38805 9.34642 10.0295 11.1935 10.0445C13.0406 10.0596 14.5659 8.43323 14.5799 6.44543Z" fill="#F1897B"/>
<path d="M30.5469 26.2669C30.5469 17.8338 30.5469 9.44592 30.5469 1.04297C31.0926 1.04297 31.6104 1.04297 32.1841 1.04297C32.1841 8.84356 32.1841 16.6442 32.1841 24.4749C32.7718 24.4749 33.3035 24.4749 33.8633 24.4749C33.8633 17.2766 33.8633 10.0935 33.8633 2.86511C37.7953 2.86511 41.6714 2.86511 45.6175 2.86511C45.6175 6.44917 45.6175 10.0332 45.6175 13.6474C47.8704 13.6474 50.0674 13.6474 52.3203 13.6474C52.3203 17.2766 52.3203 20.8607 52.3203 24.505C52.908 24.505 53.4397 24.505 53.9994 24.505C53.9994 25.1224 53.9994 25.6796 53.9994 26.2819C46.2052 26.2669 38.397 26.2669 30.5469 26.2669ZM40.622 24.4749C40.622 20.8456 40.622 17.2766 40.622 13.6474C41.7554 13.6474 42.8329 13.6474 43.9243 13.6474C43.9243 10.6205 43.9243 7.63883 43.9243 4.6722C41.1257 4.6722 38.3551 4.6722 35.5844 4.6722C35.5844 11.2982 35.5844 17.879 35.5844 24.4749C37.2496 24.4749 38.8868 24.4749 40.622 24.4749ZM50.6411 24.4749C50.6411 21.448 50.6411 18.4663 50.6411 15.5147C47.8424 15.5147 45.0718 15.5147 42.3151 15.5147C42.3151 18.5265 42.3151 21.4932 42.3151 24.4749C45.0998 24.4749 47.8564 24.4749 50.6411 24.4749Z" fill="#F1897B"/>
<path d="M48.1629 51.5764C48.1629 52.8413 48.1629 53.9858 48.1629 55.1905C50.094 55.1905 52.025 55.1905 53.998 55.1905C53.998 55.823 53.998 56.3953 53.998 56.9976C47.3093 56.9976 40.6486 56.9976 33.9318 56.9976C33.9318 56.4404 33.9318 55.8682 33.9318 55.2357C35.569 55.2357 37.2202 55.2357 38.8994 55.2357C38.8994 52.8112 38.8994 50.4469 38.8994 48.0224C37.1223 48.0224 35.3451 48.0224 33.498 48.0224C33.568 47.8116 33.61 47.661 33.652 47.5255C35.0233 43.9866 36.3806 40.4477 37.766 36.9089C38.2697 35.6288 39.3472 35.0566 40.4666 35.4632C41.1243 35.7041 41.5161 36.2312 41.782 36.9089C42.5376 38.8816 43.3073 40.8694 44.0769 42.8421C44.1189 42.9475 44.1608 43.053 44.2308 43.2186C44.3148 43.053 44.3847 42.9475 44.4267 42.8271C44.7206 42.0591 45.0284 41.3061 45.3223 40.5381C45.6861 39.5442 46.3438 38.972 47.3513 38.972C48.3308 38.972 48.9745 39.5593 49.3383 40.523C50.2339 42.8722 51.1434 45.2064 52.053 47.5405C52.5567 48.8507 53.0745 50.1759 53.6202 51.5764C51.7731 51.5764 49.996 51.5764 48.1629 51.5764ZM36.0028 46.1551C38.5496 46.1551 41.0124 46.1551 43.4892 46.1551C43.4752 46.0648 43.4752 46.0196 43.4612 45.9593C42.3837 43.1734 41.3062 40.3724 40.2148 37.5865C40.1448 37.4209 39.9069 37.1799 39.781 37.21C39.5991 37.2402 39.3892 37.451 39.3192 37.6468C38.7175 39.1527 38.1438 40.6586 37.5561 42.1645C37.0383 43.4746 36.5206 44.7847 36.0028 46.1551ZM43.5591 49.7693C46.0919 49.7693 48.5547 49.7693 51.0315 49.7693C51.0315 49.7091 51.0455 49.6639 51.0315 49.6338C49.94 46.8027 48.8486 43.9866 47.7431 41.1706C47.6871 41.0049 47.4632 40.8092 47.3373 40.8242C47.1694 40.8393 46.9595 41.02 46.8895 41.2007C46.3298 42.6012 45.7841 44.0017 45.2523 45.4022C45.1823 45.5829 45.2383 45.8389 45.3083 46.0346C45.5322 46.6822 45.7841 47.2996 46.0499 47.9923C45.5042 47.9923 45.0284 47.9773 44.5666 48.0074C44.4267 48.0224 44.2308 48.1279 44.1748 48.2483C43.937 48.7152 43.769 49.2272 43.5591 49.7693ZM40.6206 55.1755C42.6076 55.1755 44.5247 55.1755 46.4557 55.1755C46.4557 53.9708 46.4557 52.8112 46.4557 51.6065C44.6506 51.6065 42.8735 51.6065 41.0264 51.6065C41.5021 50.3716 41.9499 49.197 42.3977 48.0224C41.768 48.0224 41.2083 48.0224 40.6206 48.0224C40.6206 50.4168 40.6206 52.7811 40.6206 55.1755Z" fill="#F1897B"/>
<path d="M5.35829 44.3778C4.75659 44.3778 4.25283 44.3778 3.66512 44.3778C3.66512 43.6549 3.65113 42.9472 3.67911 42.2394C3.67911 42.1189 3.84703 41.9683 3.95898 41.878C6.46375 39.7697 8.98252 37.6614 11.5013 35.5682C11.6692 35.4327 11.9071 35.3725 12.117 35.3423C13.4184 35.1164 14.4678 35.5983 15.4893 36.5169C17.5184 38.3542 19.6593 40.0558 21.7723 41.8027C22.0242 42.0135 22.1641 42.2243 22.1501 42.6008C22.1221 43.158 22.1361 43.7302 22.1361 44.3477C21.5904 44.3477 21.0586 44.3477 20.4709 44.3477C20.4709 47.3896 20.4709 50.3713 20.4709 53.3831C15.4194 53.3831 10.4238 53.3831 5.37229 53.3831C5.35829 50.4014 5.35829 47.4197 5.35829 44.3778ZM5.93201 42.5255C10.6197 42.5255 15.1955 42.5255 19.8692 42.5255C17.7283 40.7335 15.6992 38.9866 13.6003 37.3301C13.2924 37.0892 12.5088 37.0741 12.201 37.3301C10.102 38.9716 8.07297 40.7184 5.93201 42.5255ZM7.05147 44.3928C7.05147 46.8173 7.05147 49.1967 7.05147 51.5459C7.62519 51.5459 8.14294 51.5459 8.71666 51.5459C8.71666 49.7388 8.71666 47.9769 8.71666 46.1999C11.5153 46.1999 14.2859 46.1999 17.1126 46.1999C17.1126 48.007 17.1126 49.784 17.1126 51.561C17.6863 51.561 18.204 51.561 18.7358 51.561C18.7358 49.1515 18.7358 46.7872 18.7358 44.3778C14.8457 44.3928 10.9696 44.3928 7.05147 44.3928ZM15.3774 51.576C15.3774 50.3713 15.3774 49.2117 15.3774 48.0221C13.6982 48.0221 12.047 48.0221 10.4098 48.0221C10.4098 49.2268 10.4098 50.4014 10.4098 51.576C12.089 51.576 13.7262 51.576 15.3774 51.576Z" fill="#F1897B"/>
<path d="M32.2117 33.5091C32.2117 41.37 32.2117 49.1555 32.2117 56.9862C31.638 56.9862 31.1203 56.9862 30.5605 56.9862C30.5605 48.5833 30.5605 40.2104 30.5605 31.7773C38.3547 31.7773 46.1629 31.7773 53.9991 31.7773C53.9991 32.3345 53.9991 32.9068 53.9991 33.5242C46.7646 33.5091 39.5302 33.5091 32.2117 33.5091Z" fill="#F1897B"/>
<path d="M23.829 33.5242C16.4966 33.5242 9.26214 33.5242 2.01367 33.5242C2.01367 32.9218 2.01367 32.3646 2.01367 31.7773C9.82186 31.7773 17.6301 31.7773 25.4662 31.7773C25.4662 40.1803 25.4662 48.5833 25.4662 57.0013C24.9345 57.0013 24.4167 57.0013 23.843 57.0013C23.829 49.2007 23.829 41.4001 23.829 33.5242Z" fill="#F1897B"/>
<path d="M10.3407 22.6648C9.80892 22.6648 9.29117 22.6648 8.73145 22.6648C8.73145 22.1076 8.73145 21.5354 8.73145 20.918C9.24919 20.918 9.78093 20.918 10.3407 20.918C10.3407 21.4902 10.3407 22.0625 10.3407 22.6648Z" fill="#F1897B"/>
<path d="M8.73145 17.2871C9.29117 17.2871 9.80892 17.2871 10.3407 17.2871C10.3407 17.8744 10.3407 18.4165 10.3407 19.0189C9.82291 19.0189 9.29117 19.0189 8.73145 19.0189C8.73145 18.4768 8.73145 17.9045 8.73145 17.2871Z" fill="#F1897B"/>
<path d="M10.3547 13.6895C10.3547 14.2918 10.3547 14.8339 10.3547 15.4363C9.80892 15.4363 9.27718 15.4363 8.73145 15.4363C8.73145 14.8641 8.73145 14.2918 8.73145 13.6895C9.26319 13.6895 9.78093 13.6895 10.3547 13.6895Z" fill="#F1897B"/>
<path d="M18.7503 22.6648C17.6448 22.6648 16.5674 22.6648 15.4619 22.6648C15.4619 22.0926 15.4619 21.5203 15.4619 20.918C16.5534 20.918 17.6448 20.918 18.7503 20.918C18.7503 21.4902 18.7503 22.0474 18.7503 22.6648Z" fill="#F1897B"/>
<path d="M15.4341 19.0365C15.4341 18.4341 15.4341 17.8769 15.4341 17.3047C16.5395 17.3047 17.603 17.3047 18.7225 17.3047C18.7225 17.8619 18.7225 18.4341 18.7225 19.0365C17.659 19.0365 16.5675 19.0365 15.4341 19.0365Z" fill="#F1897B"/>
<path d="M12.0755 9.11354C11.4878 9.11354 10.97 9.11354 10.3963 9.11354C10.3963 8.5413 10.3963 7.96906 10.3963 7.35163C9.82259 7.35163 9.30484 7.35163 8.74512 7.35163C8.74512 6.74927 8.74512 6.17703 8.74512 5.54455C9.26286 5.54455 9.79461 5.54455 10.3683 5.54455C10.3683 4.92713 10.3683 4.36994 10.3683 3.76758C10.9281 3.76758 11.4598 3.76758 12.0475 3.76758C12.0475 4.32476 12.0475 4.89701 12.0475 5.51443C12.6212 5.51443 13.139 5.51443 13.6987 5.51443C13.6987 6.11679 13.6987 6.68904 13.6987 7.32152C13.181 7.32152 12.6492 7.32152 12.0755 7.32152C12.0755 7.93894 12.0755 8.49612 12.0755 9.11354Z" fill="#F1897B"/>
<path d="M37.2764 22.6674C37.2764 22.0951 37.2764 21.5379 37.2764 20.9355C37.7941 20.9355 38.3259 20.9355 38.8996 20.9355C38.8996 21.4927 38.8996 22.065 38.8996 22.6674C38.3538 22.6674 37.8221 22.6674 37.2764 22.6674Z" fill="#F1897B"/>
<path d="M37.2905 13.6758C37.8363 13.6758 38.34 13.6758 38.8997 13.6758C38.8997 14.2631 38.8997 14.8353 38.8997 15.4377C38.368 15.4377 37.8503 15.4377 37.2905 15.4377C37.2905 14.8805 37.2905 14.3083 37.2905 13.6758Z" fill="#F1897B"/>
<path d="M42.2445 11.8381C41.6988 11.8381 41.195 11.8381 40.6353 11.8381C40.6353 11.2658 40.6353 10.6936 40.6353 10.0762C41.139 10.0762 41.6708 10.0762 42.2445 10.0762C42.2445 10.6484 42.2445 11.2207 42.2445 11.8381Z" fill="#F1897B"/>
<path d="M38.8856 11.8205C38.3398 11.8205 37.8221 11.8205 37.2764 11.8205C37.2764 11.2332 37.2764 10.661 37.2764 10.0586C37.8081 10.0586 38.3259 10.0586 38.8856 10.0586C38.8856 10.6308 38.8856 11.2031 38.8856 11.8205Z" fill="#F1897B"/>
<path d="M40.6211 8.20584C40.6211 7.61853 40.6211 7.06135 40.6211 6.45898C41.1528 6.45898 41.6846 6.45898 42.2443 6.45898C42.2443 7.03123 42.2443 7.60347 42.2443 8.20584C41.7126 8.20584 41.1948 8.20584 40.6211 8.20584Z" fill="#F1897B"/>
<path d="M37.249 8.19078C37.249 7.60347 37.249 7.06135 37.249 6.45898C37.7808 6.45898 38.3125 6.45898 38.8862 6.45898C38.8862 7.00111 38.8862 7.57336 38.8862 8.19078C38.3545 8.19078 37.8367 8.19078 37.249 8.19078Z" fill="#F1897B"/>
<path d="M37.2632 19.0365C37.2632 18.4492 37.2632 17.892 37.2632 17.3047C37.8089 17.3047 38.3407 17.3047 38.9004 17.3047C38.9004 17.8769 38.9004 18.4341 38.9004 19.0365C38.3686 19.0365 37.8369 19.0365 37.2632 19.0365Z" fill="#F1897B"/>
<path d="M44.0073 17.2871C44.553 17.2871 45.0708 17.2871 45.6165 17.2871C45.6165 17.8744 45.6165 18.4467 45.6165 19.049C45.0848 19.049 44.567 19.049 44.0073 19.049C44.0073 18.4918 44.0073 17.9196 44.0073 17.2871Z" fill="#F1897B"/>
<path d="M48.9754 19.0515C48.4297 19.0515 47.9259 19.0515 47.3662 19.0515C47.3662 18.4793 47.3662 17.9221 47.3662 17.3047C47.884 17.3047 48.4157 17.3047 48.9754 17.3047C48.9754 17.8769 48.9754 18.4341 48.9754 19.0515Z" fill="#F1897B"/>
<path d="M43.98 22.6648C43.98 22.0775 43.98 21.5203 43.98 20.918C44.5117 20.918 45.0435 20.918 45.6032 20.918C45.6032 21.4902 45.6032 22.0625 45.6032 22.6648C45.0715 22.6648 44.5537 22.6648 43.98 22.6648Z" fill="#F1897B"/>
<path d="M48.9747 20.918C48.9747 21.5053 48.9747 22.0474 48.9747 22.6497C48.443 22.6497 47.9253 22.6497 47.3516 22.6497C47.3516 22.0926 47.3516 21.5203 47.3516 20.918C47.8833 20.918 48.401 20.918 48.9747 20.918Z" fill="#F1897B"/>
</g>
<defs>
<clipPath id="clip0_48_503">
<rect width="56" height="56" fill="white" transform="translate(0 0.974609)"/>
</clipPath>
</defs>
</svg>
