<svg width="56" height="57" viewBox="0 0 56 57" fill="none" xmlns="http://www.w3.org/2000/svg">
<g clip-path="url(#clip0_49_605)">
<path d="M48.8403 23.3817C48.8037 23.4824 48.7579 23.5738 48.7214 23.6744C48.3829 24.4976 47.5323 24.9733 46.6999 24.8178C45.8127 24.6531 45.1907 23.9214 45.1907 23.0067C45.1816 21.2689 45.1907 19.531 45.1907 17.7931C45.1907 14.7015 45.1907 11.6099 45.1907 8.50921C45.1907 6.16765 43.6449 4.62186 41.2942 4.62186C30.7206 4.62186 20.1379 4.62186 9.56432 4.62186C7.22277 4.62186 5.67697 6.16765 5.67697 8.5275C5.67697 16.3296 5.67697 24.1318 5.67697 31.9339C5.67697 34.2572 7.23191 35.8121 9.53688 35.8121C12.3907 35.8121 15.2353 35.8304 18.0891 35.803C18.9214 35.7938 19.5342 36.0865 20.0464 36.7451C21.638 38.8031 23.2661 40.8428 24.8759 42.8825C25.3332 43.4588 25.4887 43.4588 25.9461 42.8734C27.5467 40.8337 29.1474 38.8031 30.7298 36.7542C31.2329 36.0957 31.8457 35.7847 32.678 35.7938C35.541 35.8213 38.4039 35.803 41.2759 35.803C43.5626 35.803 45.0627 34.3761 45.1816 32.0986C45.2273 31.2022 45.831 30.4979 46.6999 30.3424C47.5323 30.1869 48.3738 30.6625 48.7214 31.4857C48.7579 31.5863 48.8037 31.6778 48.8403 31.7784C48.8403 32.1717 48.8403 32.5742 48.8403 32.9675C48.8128 33.0224 48.7762 33.0681 48.7671 33.1321C48.1177 36.9829 45.1907 39.4616 41.2942 39.4616C38.7789 39.4616 36.2635 39.4708 33.7482 39.4525C33.3823 39.4525 33.172 39.5714 32.9524 39.8458C31.5347 41.6752 30.117 43.5136 28.6718 45.3155C26.8882 47.5473 23.8881 47.5199 22.1136 45.279C20.6684 43.4496 19.2232 41.6203 17.7872 39.7818C17.5951 39.5348 17.403 39.4525 17.1012 39.4525C14.4761 39.4616 11.8601 39.4708 9.23504 39.4525C5.97882 39.4251 3.12504 37.2116 2.26525 34.0651C2.16464 33.6992 2.09147 33.3334 2 32.9675C2 24.4611 2 15.9546 2 7.44819C2.02744 7.36587 2.07317 7.28355 2.08232 7.19208C2.62198 3.65231 5.66783 0.981469 9.28078 0.981469C20.0373 0.972323 30.803 0.972323 41.5595 0.981469C44.8706 0.981469 47.7244 3.21326 48.5842 6.41461C48.6756 6.76219 48.7488 7.11891 48.8403 7.46648C48.8403 12.7716 48.8403 18.0767 48.8403 23.3817Z" fill="#F1897B"/>
<path d="M27.2539 23.9216C27.2539 25.5223 27.2539 27.1229 27.2539 28.7145C27.2539 29.8761 26.4947 30.6902 25.4337 30.6993C24.3544 30.7085 23.5952 29.8761 23.5952 28.6962C23.5952 25.5131 23.5952 22.3301 23.5952 19.147C23.5952 17.9854 24.3544 17.1713 25.4154 17.1622C26.4947 17.153 27.2539 17.9762 27.2539 19.1653C27.2539 20.7568 27.2539 22.3392 27.2539 23.9216Z" fill="#F1897B"/>
<path d="M25.4154 10.8594C26.4215 10.8594 27.2448 11.6734 27.2448 12.6796C27.2448 13.6857 26.4307 14.5089 25.4246 14.5181C24.4184 14.5181 23.5952 13.704 23.5952 12.6979C23.5952 11.6826 24.4093 10.8594 25.4154 10.8594Z" fill="#F1897B"/>
</g>
<defs>
<clipPath id="clip0_49_605">
<rect width="56" height="56" fill="white" transform="translate(0 0.974609)"/>
</clipPath>
</defs>
</svg>
