<svg width="20" height="19" viewBox="0 0 20 19" fill="none" xmlns="http://www.w3.org/2000/svg">
<path d="M9.99731 4.62558C7.15795 4.62558 4.86644 6.80255 4.86644 9.5C4.86644 12.1974 7.15795 14.3744 9.99731 14.3744C12.8367 14.3744 15.1282 12.1974 15.1282 9.5C15.1282 6.80255 12.8367 4.62558 9.99731 4.62558ZM9.99731 12.668C8.16111 12.668 6.66262 11.2444 6.66262 9.5C6.66262 7.75557 8.16111 6.33198 9.99731 6.33198C11.8335 6.33198 13.332 7.75557 13.332 9.5C13.332 11.2444 11.8335 12.668 9.99731 12.668ZM15.3383 3.28993C14.6754 3.28993 14.14 3.79852 14.14 4.42832C14.14 5.05812 14.6754 5.56672 15.3383 5.56672C16.0013 5.56672 16.5366 5.0605 16.5366 4.42832C16.5368 4.27877 16.5059 4.13066 16.4458 3.99246C16.3856 3.85426 16.2974 3.72869 16.1861 3.62294C16.0748 3.51719 15.9426 3.43335 15.7971 3.3762C15.6516 3.31906 15.4957 3.28974 15.3383 3.28993ZM19.9989 9.5C19.9989 8.18811 20.0114 6.88811 19.9338 5.5786C19.8563 4.05757 19.4911 2.70766 18.3203 1.59541C17.147 0.480781 15.7286 0.136173 14.1275 0.0624986C12.7466 -0.0111762 11.3782 0.000706908 9.99981 0.000706908C8.61891 0.000706908 7.25051 -0.0111762 5.8721 0.0624986C4.27105 0.136173 2.85012 0.483158 1.67935 1.59541C0.506076 2.71004 0.143338 4.05757 0.0657868 5.5786C-0.0117642 6.89049 0.000744099 8.19049 0.000744099 9.5C0.000744099 10.8095 -0.0117642 12.1119 0.0657868 13.4214C0.143338 14.9424 0.508578 16.2923 1.67935 17.4046C2.85262 18.5192 4.27105 18.8638 5.8721 18.9375C7.25301 19.0112 8.62141 18.9993 9.99981 18.9993C11.3807 18.9993 12.7491 19.0112 14.1275 18.9375C15.7286 18.8638 17.1495 18.5168 18.3203 17.4046C19.4936 16.29 19.8563 14.9424 19.9338 13.4214C20.0139 12.1119 19.9989 10.8119 19.9989 9.5ZM17.7974 15.104C17.6148 15.5366 17.3947 15.8598 17.0419 16.1925C16.6892 16.5276 16.3515 16.7368 15.8962 16.9103C14.5803 17.407 11.4558 17.2953 9.99731 17.2953C8.53885 17.2953 5.4118 17.407 4.09593 16.9126C3.64064 16.7391 3.30041 16.53 2.95018 16.1949C2.59745 15.8598 2.37731 15.539 2.19469 15.1064C1.67434 13.8539 1.79192 10.8856 1.79192 9.5C1.79192 8.11444 1.67434 5.14368 2.19469 3.89359C2.37731 3.46104 2.59745 3.13783 2.95018 2.8051C3.30291 2.47238 3.64064 2.26086 4.09593 2.08737C5.4118 1.59303 8.53885 1.70473 9.99731 1.70473C11.4558 1.70473 14.5828 1.59303 15.8987 2.08737C16.354 2.26086 16.6942 2.47 17.0444 2.8051C17.3972 3.1402 17.6173 3.46104 17.7999 3.89359C18.3203 5.14368 18.2027 8.11444 18.2027 9.5C18.2027 10.8856 18.3203 13.8539 17.7974 15.104Z" fill="#F1897B"/>
</svg>
