<svg width="22" height="22" viewBox="0 0 22 22" fill="none" xmlns="http://www.w3.org/2000/svg">
<g clip-path="url(#clip0_59_697)">
<path d="M10.0426 21.5108C9.73748 21.4858 9.43234 21.4558 9.12721 21.4358C7.70658 21.3208 6.31097 21.0957 4.96037 20.6305C4.17002 20.3603 3.40969 20.0202 2.77441 19.4549C2.45427 19.1698 2.20416 18.8347 2.0841 18.4245C1.854 17.6641 2.11412 17.0339 2.64435 16.4986C3.17958 15.9534 3.84988 15.6232 4.54519 15.3531C5.4756 14.993 6.43602 14.7579 7.41645 14.5928C7.46147 14.5878 7.50149 14.5728 7.56152 14.5578C7.5265 14.4928 7.50149 14.4427 7.46647 14.3927C6.77617 13.3172 6.07586 12.2468 5.40056 11.1563C4.52518 9.74566 4.20504 8.20998 4.50017 6.57426C4.92535 4.22323 6.23593 2.51247 8.4219 1.57206C10.6729 0.606633 12.8589 0.871749 14.8597 2.30238C16.2503 3.29282 17.1107 4.65342 17.4559 6.31915C17.811 8.0349 17.5259 9.66062 16.5955 11.1563C15.9202 12.2418 15.2199 13.3122 14.5296 14.3927C14.4996 14.4427 14.4746 14.4928 14.4345 14.5578C14.8347 14.6378 15.2199 14.7078 15.6001 14.7979C16.6855 15.053 17.751 15.3681 18.7014 15.9784C19.2267 16.3136 19.6769 16.7187 19.892 17.334C20.107 17.9443 19.992 18.5045 19.6268 19.0147C19.2567 19.535 18.7364 19.8701 18.1812 20.1552C17.0407 20.7355 15.8152 21.0456 14.5596 21.2307C13.7492 21.3508 12.9289 21.4008 12.1135 21.4858C12.0485 21.4908 11.9835 21.5058 11.9184 21.5208C11.2982 21.5108 10.6679 21.5108 10.0426 21.5108ZM10.998 17.6842C11.0531 17.5991 11.0981 17.5391 11.1331 17.4791C12.5687 15.2281 14.0044 12.9721 15.45 10.7211C16.5955 8.9403 16.7456 7.08449 15.8001 5.19866C14.9348 3.46789 13.4841 2.45745 11.5533 2.26236C9.51238 2.05727 7.86165 2.83261 6.63611 4.46833C5.34054 6.1991 5.2555 8.6952 6.41601 10.511C7.34142 11.9616 8.27183 13.4073 9.19724 14.8529C9.7925 15.7883 10.3878 16.7237 10.998 17.6842ZM10.998 20.3353C11.7484 20.2853 12.5037 20.2553 13.249 20.1853C14.5546 20.0702 15.8352 19.8201 17.0557 19.3349C17.6159 19.1148 18.1612 18.8597 18.5714 18.3995C18.8815 18.0543 18.9015 17.7292 18.5614 17.414C18.2562 17.1339 17.9111 16.8738 17.5459 16.6887C16.3704 16.0935 15.0948 15.8533 13.8043 15.6833C13.7542 15.6783 13.6742 15.7333 13.6392 15.7833C13.3991 16.1485 13.164 16.5236 12.9289 16.8938C12.4687 17.6191 12.0085 18.3444 11.5433 19.0698C11.3232 19.4099 10.938 19.505 10.6529 19.2849C10.5628 19.2148 10.4878 19.1148 10.4228 19.0147C9.74248 17.9493 9.06218 16.8838 8.38188 15.8133C8.31685 15.7133 8.26183 15.6633 8.12677 15.6883C7.84164 15.7483 7.54651 15.7733 7.26138 15.8283C6.20592 16.0234 5.16046 16.2785 4.22004 16.8188C3.91991 16.9888 3.63979 17.219 3.39468 17.4691C3.11956 17.7492 3.13457 18.0643 3.39468 18.3645C3.52474 18.5145 3.6748 18.6496 3.83487 18.7646C4.46515 19.2048 5.18047 19.4649 5.91079 19.67C7.57652 20.1402 9.27727 20.2953 10.998 20.3353Z" fill="#F1897B"/>
<path d="M10.9978 4.66408C12.6485 4.65907 14.0041 6.01467 14.0041 7.6654C14.0041 9.31613 12.6485 10.6717 10.9978 10.6667C9.35207 10.6617 8.00648 9.32113 8.00148 7.6754C7.99648 6.02468 9.34707 4.66908 10.9978 4.66408ZM10.9728 9.46119C11.9432 9.4862 12.7686 8.69085 12.7986 7.69541C12.8286 6.72498 12.0383 5.89962 11.0378 5.86461C10.0674 5.82959 9.22202 6.63995 9.20201 7.64039C9.182 8.61082 9.98235 9.43618 10.9728 9.46119Z" fill="#F1897B"/>
</g>
<defs>
<clipPath id="clip0_59_697">
<rect width="22" height="22" fill="white" transform="translate(22) rotate(90)"/>
</clipPath>
</defs>
</svg>
