<svg width="22" height="22" viewBox="0 0 22 22" fill="none" xmlns="http://www.w3.org/2000/svg">
<path d="M11.5583 20C11.1833 20 10.8083 20 10.4332 20C10.2129 19.9719 9.99259 19.9484 9.77695 19.9203C8.11281 19.6812 6.61742 19.0437 5.31892 17.9702C3.60789 16.5592 2.53909 14.7544 2.14063 12.5699C2.07969 12.2371 2.04688 11.8996 2 11.5668C2 11.1917 2 10.8167 2 10.4417C2.00938 10.3855 2.02344 10.3292 2.03281 10.273C2.08907 9.89793 2.11719 9.51354 2.19688 9.14321C2.71254 6.78059 3.97822 4.91018 5.97051 3.55074C7.93467 2.21473 10.1192 1.75534 12.463 2.12098C14.1506 2.38818 15.646 3.10072 16.9211 4.23515C18.8852 5.98367 19.9212 8.18222 19.9962 10.8167C20.0431 12.5184 19.6306 14.1169 18.7446 15.5748C17.3195 17.9186 15.2522 19.3578 12.5521 19.8687C12.2193 19.9203 11.8864 19.9531 11.5583 20ZM18.7962 11.0042C18.8055 6.71027 15.2991 3.19916 10.9958 3.19447C6.70649 3.18978 3.20944 6.68215 3.19068 10.9808C3.17193 15.2701 6.67836 18.7859 10.9817 18.7999C15.2757 18.814 18.7915 15.3076 18.7962 11.0042Z" fill="#F1897B"/>
<path d="M10.3955 8.58919C10.3955 7.79227 10.3955 6.99536 10.3955 6.19844C10.3955 5.87968 10.6158 5.6406 10.9252 5.59841C11.2159 5.56091 11.4971 5.75311 11.5721 6.04844C11.5909 6.12813 11.5909 6.21251 11.5909 6.2922C11.5909 7.70321 11.5956 9.11421 11.5862 10.5299C11.5862 10.6612 11.6284 10.7409 11.7315 10.8205C12.6034 11.5096 13.4707 12.2081 14.3426 12.9019C14.5442 13.066 14.6285 13.2722 14.577 13.5254C14.5348 13.741 14.3941 13.891 14.1832 13.9613C13.9535 14.0363 13.7472 13.9707 13.5644 13.8207C13.0206 13.3801 12.4769 12.9488 11.9331 12.5128C11.5112 12.1753 11.094 11.8378 10.6721 11.505C10.4846 11.355 10.3955 11.1721 10.3955 10.9284C10.4002 10.1502 10.3955 9.37204 10.3955 8.58919Z" fill="#F1897B"/>
</svg>
