<svg width="65" height="71" viewBox="0 0 65 71" fill="none" xmlns="http://www.w3.org/2000/svg">
<path d="M1.95907 6.78807C3.06105 6.78807 4.11056 6.78807 5.19505 6.78807C5.3 4.6233 6.05214 2.81618 7.60891 1.47967C8.85082 0.406691 10.2851 -0.0827351 11.8769 0.0113856C14.6931 0.180803 17.6142 2.51499 17.8416 6.75042C18.8911 6.75042 19.9581 6.75042 21.0776 6.75042C20.7977 9.79993 20.5178 12.7553 20.2554 15.7672C21.8997 15.7672 23.4914 15.7672 25.1356 15.7672C25.1356 20.3038 25.1356 24.7839 25.1356 29.3017C25.8703 29.3017 26.535 29.3017 27.2346 29.3017C27.2346 19.5508 27.2346 9.81876 27.2346 0.0490333C27.9343 0.0490333 28.599 0.0490333 29.3162 0.0490333C29.3162 10.5341 29.3162 21.0379 29.3162 31.5794C19.5558 31.5794 9.79538 31.5794 0 31.5794C0 30.8641 0 30.1676 0 29.377C1.32937 29.377 2.64125 29.377 4.05808 29.377C3.35841 21.8474 2.67624 14.3742 1.95907 6.78807ZM4.28548 9.10344C4.91518 15.8613 5.54488 22.6003 6.17459 29.3394C8.32607 29.3394 10.4251 29.3394 12.5766 29.3394C12.5766 24.8216 12.5766 20.3414 12.5766 15.8237C14.4482 15.8237 16.2673 15.8237 18.1214 15.8237C18.3313 13.5459 18.5412 11.3247 18.7511 9.04697C18.4363 9.04697 18.2089 9.04697 17.999 9.04697C17.8241 9.04697 17.6492 9.04697 17.4743 9.04697C17.3693 9.29168 17.2818 9.49874 17.1769 9.70581C16.0224 12.0965 14.2033 13.4518 11.702 13.5271C9.13069 13.6024 7.22409 12.3224 5.96468 9.9317C5.45742 8.97167 5.47492 8.97167 4.28548 9.10344ZM23.0191 29.3394C23.0191 25.5745 23.0191 21.8474 23.0191 18.139C20.2205 18.139 17.4568 18.139 14.6931 18.139C14.6931 21.9038 14.6931 25.6122 14.6931 29.3394C17.4743 29.3394 20.2205 29.3394 23.0191 29.3394ZM15.7251 6.8069C15.7251 4.30329 13.8535 2.27028 11.5271 2.27028C9.23564 2.27028 7.34653 4.26564 7.32904 6.7316C7.31155 9.23521 9.18316 11.287 11.4921 11.3059C13.801 11.3247 15.7076 9.29168 15.7251 6.8069Z" fill="#F1897B"/>
<path d="M35.6841 31.5831C35.6841 21.0416 35.6841 10.5566 35.6841 0.0527344C36.3663 0.0527344 37.0135 0.0527344 37.7306 0.0527344C37.7306 9.80363 37.7306 19.5545 37.7306 29.3431C38.4653 29.3431 39.13 29.3431 39.8296 29.3431C39.8296 20.3451 39.8296 11.366 39.8296 2.33045C44.7448 2.33045 49.59 2.33045 54.5227 2.33045C54.5227 6.81059 54.5227 11.2907 54.5227 15.8085C57.3389 15.8085 60.0851 15.8085 62.9012 15.8085C62.9012 20.3451 62.9012 24.8253 62.9012 29.3807C63.6359 29.3807 64.3006 29.3807 65.0002 29.3807C65.0002 30.1525 65.0002 30.849 65.0002 31.602C55.2573 31.5831 45.497 31.5831 35.6841 31.5831ZM48.2781 29.3431C48.2781 24.8064 48.2781 20.3451 48.2781 15.8085C49.695 15.8085 51.0418 15.8085 52.4062 15.8085C52.4062 12.0249 52.4062 8.2977 52.4062 4.58935C48.9078 4.58935 45.4445 4.58935 41.9811 4.58935C41.9811 12.872 41.9811 21.0981 41.9811 29.3431C44.0626 29.3431 46.1092 29.3431 48.2781 29.3431ZM60.8022 29.3431C60.8022 25.5594 60.8022 21.8322 60.8022 18.1427C57.3039 18.1427 53.8405 18.1427 50.3946 18.1427C50.3946 21.9075 50.3946 25.6159 50.3946 29.3431C53.8755 29.3431 57.3214 29.3431 60.8022 29.3431Z" fill="#F1897B"/>
<path d="M57.7044 63.2213C57.7044 64.8025 57.7044 66.2331 57.7044 67.7391C60.1183 67.7391 62.5321 67.7391 64.9985 67.7391C64.9985 68.5297 64.9985 69.245 64.9985 69.998C56.6374 69.998 48.3113 69.998 39.9153 69.998C39.9153 69.3015 39.9153 68.5861 39.9153 67.7955C41.9618 67.7955 44.0259 67.7955 46.1249 67.7955C46.1249 64.7649 46.1249 61.8095 46.1249 58.7788C43.9034 58.7788 41.682 58.7788 39.373 58.7788C39.4605 58.5153 39.513 58.327 39.5655 58.1576C41.2796 53.7339 42.9763 49.3103 44.708 44.8866C45.3377 43.2865 46.6846 42.5712 48.0839 43.0795C48.906 43.3807 49.3958 44.0395 49.7282 44.8866C50.6727 47.3526 51.6348 49.8373 52.5968 52.3033C52.6493 52.4351 52.7018 52.5668 52.7892 52.7739C52.8942 52.5668 52.9816 52.4351 53.0341 52.2845C53.4014 51.3244 53.7862 50.3832 54.1536 49.4232C54.6084 48.1808 55.4305 47.4655 56.6899 47.4655C57.9143 47.4655 58.7189 48.1996 59.1737 49.4044C60.2932 52.3409 61.4301 55.2587 62.5671 58.1764C63.1968 59.8141 63.844 61.4706 64.5262 63.2213C62.2173 63.2213 59.9958 63.2213 57.7044 63.2213ZM42.5041 56.4446C45.6876 56.4446 48.7661 56.4446 51.8622 56.4446C51.8447 56.3317 51.8447 56.2752 51.8272 56.1999C50.4803 52.7174 49.1334 49.2161 47.7691 45.7337C47.6816 45.5266 47.3843 45.2254 47.2268 45.2631C46.9994 45.3007 46.7371 45.5643 46.6496 45.809C45.8975 47.6914 45.1803 49.5738 44.4457 51.4562C43.7985 53.0939 43.1513 54.7316 42.5041 56.4446ZM51.9496 60.9624C55.1156 60.9624 58.1942 60.9624 61.2902 60.9624C61.2902 60.8871 61.3077 60.8306 61.2902 60.793C59.9258 57.254 58.5615 53.7339 57.1796 50.2138C57.1097 50.0068 56.8298 49.762 56.6724 49.7809C56.4625 49.7997 56.2001 50.0256 56.1126 50.2515C55.413 52.0021 54.7308 53.7528 54.0661 55.5034C53.9787 55.7293 54.0486 56.0493 54.1361 56.294C54.4159 57.1034 54.7308 57.8752 55.0631 58.7411C54.381 58.7411 53.7862 58.7223 53.209 58.76C53.0341 58.7788 52.7892 58.9106 52.7192 59.0611C52.4219 59.6447 52.212 60.2847 51.9496 60.9624ZM48.2763 67.7202C50.7602 67.7202 53.1565 67.7202 55.5704 67.7202C55.5704 66.2143 55.5704 64.7649 55.5704 63.2589C53.314 63.2589 51.0925 63.2589 48.7836 63.2589C49.3783 61.7153 49.9381 60.2471 50.4978 58.7788C49.7107 58.7788 49.011 58.7788 48.2763 58.7788C48.2763 61.7718 48.2763 64.7272 48.2763 67.7202Z" fill="#F1897B"/>
<path d="M4.19802 54.2229C3.44588 54.2229 2.81617 54.2229 2.08152 54.2229C2.08152 53.3193 2.06403 52.4346 2.09901 51.5499C2.09901 51.3993 2.30891 51.211 2.44885 51.0981C5.57987 48.4627 8.72838 45.8273 11.8769 43.2108C12.0868 43.0414 12.3842 42.9661 12.6465 42.9284C14.2733 42.646 15.5851 43.2484 16.862 44.3967C19.3983 46.6932 22.0746 48.8204 24.7158 51.004C25.0307 51.2675 25.2056 51.531 25.1881 52.0016C25.1531 52.6981 25.1706 53.4135 25.1706 54.1852C24.4884 54.1852 23.8238 54.1852 23.0891 54.1852C23.0891 57.9877 23.0891 61.7149 23.0891 65.4797C16.7746 65.4797 10.53 65.4797 4.21551 65.4797C4.19802 61.7525 4.19802 58.0254 4.19802 54.2229ZM4.91518 51.9075C10.7749 51.9075 16.4947 51.9075 22.337 51.9075C19.6607 49.6674 17.1244 47.4838 14.5007 45.4132C14.1158 45.112 13.1363 45.0932 12.7515 45.4132C10.1277 47.465 7.59142 49.6486 4.91518 51.9075ZM6.31452 54.2417C6.31452 57.2724 6.31452 60.2466 6.31452 63.1832C7.03168 63.1832 7.67888 63.1832 8.39604 63.1832C8.39604 60.9243 8.39604 58.7219 8.39604 56.5006C11.8944 56.5006 15.3578 56.5006 18.8911 56.5006C18.8911 58.7595 18.8911 60.9808 18.8911 63.202C19.6082 63.202 20.2554 63.202 20.9201 63.202C20.9201 60.1901 20.9201 57.2348 20.9201 54.2229C16.0574 54.2417 11.2122 54.2417 6.31452 54.2417ZM16.7221 63.2208C16.7221 61.7149 16.7221 60.2654 16.7221 58.7783C14.6231 58.7783 12.5591 58.7783 10.5125 58.7783C10.5125 60.2843 10.5125 61.7525 10.5125 63.2208C12.6115 63.2208 14.6581 63.2208 16.7221 63.2208Z" fill="#F1897B"/>
<path d="M37.7652 40.6355C37.7652 50.4617 37.7652 60.1937 37.7652 69.9823C37.048 69.9823 36.4008 69.9823 35.7012 69.9823C35.7012 59.4784 35.7012 49.0122 35.7012 38.4707C45.4441 38.4707 55.2045 38.4707 64.9998 38.4707C64.9998 39.1672 64.9998 39.8825 64.9998 40.6543C55.9566 40.6355 46.9134 40.6355 37.7652 40.6355Z" fill="#F1897B"/>
<path d="M27.2867 40.6543C18.121 40.6543 9.07782 40.6543 0.0170898 40.6543C0.0170898 39.9013 0.0170898 39.2048 0.0170898 38.4707C9.77748 38.4707 19.5379 38.4707 29.3333 38.4707C29.3333 48.9746 29.3333 59.4784 29.3333 70.0011C28.6686 70.0011 28.0214 70.0011 27.3042 70.0011C27.2867 60.2502 27.2867 50.4993 27.2867 40.6543Z" fill="#F1897B"/>
<path d="M10.4256 27.0801C9.76093 27.0801 9.11373 27.0801 8.41406 27.0801C8.41406 26.3836 8.41406 25.6683 8.41406 24.8965C9.06126 24.8965 9.72594 24.8965 10.4256 24.8965C10.4256 25.6118 10.4256 26.3271 10.4256 27.0801Z" fill="#F1897B"/>
<path d="M8.41406 20.3594C9.11373 20.3594 9.76093 20.3594 10.4256 20.3594C10.4256 21.0935 10.4256 21.7712 10.4256 22.5241C9.77842 22.5241 9.11373 22.5241 8.41406 22.5241C8.41406 21.8465 8.41406 21.1312 8.41406 20.3594Z" fill="#F1897B"/>
<path d="M10.4431 15.8633C10.4431 16.6162 10.4431 17.2939 10.4431 18.0469C9.76093 18.0469 9.09624 18.0469 8.41406 18.0469C8.41406 17.3316 8.41406 16.6162 8.41406 15.8633C9.07875 15.8633 9.72594 15.8633 10.4431 15.8633Z" fill="#F1897B"/>
<path d="M20.9382 27.0801C19.5563 27.0801 18.2095 27.0801 16.8276 27.0801C16.8276 26.3648 16.8276 25.6494 16.8276 24.8965C18.192 24.8965 19.5563 24.8965 20.9382 24.8965C20.9382 25.6118 20.9382 26.3083 20.9382 27.0801Z" fill="#F1897B"/>
<path d="M16.7925 22.5437C16.7925 21.7907 16.7925 21.0942 16.7925 20.3789C18.1743 20.3789 19.5037 20.3789 20.903 20.3789C20.903 21.0754 20.903 21.7907 20.903 22.5437C19.5737 22.5437 18.2093 22.5437 16.7925 22.5437Z" fill="#F1897B"/>
<path d="M12.5942 10.1415C11.8595 10.1415 11.2123 10.1415 10.4952 10.1415C10.4952 9.42623 10.4952 8.71091 10.4952 7.93913C9.77802 7.93913 9.13082 7.93913 8.43115 7.93913C8.43115 7.18616 8.43115 6.47084 8.43115 5.68023C9.07835 5.68023 9.74303 5.68023 10.4602 5.68023C10.4602 4.90844 10.4602 4.21195 10.4602 3.45898C11.1599 3.45898 11.8246 3.45898 12.5592 3.45898C12.5592 4.15548 12.5592 4.87079 12.5592 5.64258C13.2764 5.64258 13.9236 5.64258 14.6232 5.64258C14.6232 6.39555 14.6232 7.11087 14.6232 7.90148C13.976 7.90148 13.3113 7.90148 12.5942 7.90148C12.5942 8.67327 12.5942 9.36976 12.5942 10.1415Z" fill="#F1897B"/>
<path d="M44.0962 27.0828C44.0962 26.3674 44.0962 25.6709 44.0962 24.918C44.7434 24.918 45.4081 24.918 46.1252 24.918C46.1252 25.6145 46.1252 26.3298 46.1252 27.0828C45.4431 27.0828 44.7784 27.0828 44.0962 27.0828Z" fill="#F1897B"/>
<path d="M44.1138 15.8438C44.7959 15.8438 45.4257 15.8438 46.1253 15.8438C46.1253 16.5779 46.1253 17.2932 46.1253 18.0462C45.4606 18.0462 44.8134 18.0462 44.1138 18.0462C44.1138 17.3497 44.1138 16.6344 44.1138 15.8438Z" fill="#F1897B"/>
<path d="M50.3065 13.5462C49.6243 13.5462 48.9946 13.5462 48.2949 13.5462C48.2949 12.8309 48.2949 12.1155 48.2949 11.3438C48.9246 11.3438 49.5893 11.3438 50.3065 11.3438C50.3065 12.0591 50.3065 12.7744 50.3065 13.5462Z" fill="#F1897B"/>
<path d="M46.1077 13.5266C45.4256 13.5266 44.7784 13.5266 44.0962 13.5266C44.0962 12.7925 44.0962 12.0772 44.0962 11.3242C44.7609 11.3242 45.4081 11.3242 46.1077 11.3242C46.1077 12.0395 46.1077 12.7548 46.1077 13.5266Z" fill="#F1897B"/>
<path d="M48.2773 9.00782C48.2773 8.27368 48.2773 7.57718 48.2773 6.82422C48.942 6.82422 49.6067 6.82422 50.3064 6.82422C50.3064 7.53954 50.3064 8.25485 50.3064 9.00782C49.6417 9.00782 48.9945 9.00782 48.2773 9.00782Z" fill="#F1897B"/>
<path d="M44.0615 8.98899C44.0615 8.25485 44.0615 7.57718 44.0615 6.82422C44.7262 6.82422 45.3909 6.82422 46.1081 6.82422C46.1081 7.50189 46.1081 8.21721 46.1081 8.98899C45.4434 8.98899 44.7962 8.98899 44.0615 8.98899Z" fill="#F1897B"/>
<path d="M44.0796 22.5437C44.0796 21.8095 44.0796 21.113 44.0796 20.3789C44.7618 20.3789 45.4265 20.3789 46.1261 20.3789C46.1261 21.0942 46.1261 21.7907 46.1261 22.5437C45.4614 22.5437 44.7968 22.5437 44.0796 22.5437Z" fill="#F1897B"/>
<path d="M52.5103 20.3594C53.1924 20.3594 53.8396 20.3594 54.5218 20.3594C54.5218 21.0935 54.5218 21.8088 54.5218 22.5618C53.8571 22.5618 53.2099 22.5618 52.5103 22.5618C52.5103 21.8653 52.5103 21.15 52.5103 20.3594Z" fill="#F1897B"/>
<path d="M58.72 22.5625C58.0379 22.5625 57.4082 22.5625 56.7085 22.5625C56.7085 21.8472 56.7085 21.1507 56.7085 20.3789C57.3557 20.3789 58.0204 20.3789 58.72 20.3789C58.72 21.0942 58.72 21.7907 58.72 22.5625Z" fill="#F1897B"/>
<path d="M52.4761 27.0801C52.4761 26.3459 52.4761 25.6494 52.4761 24.8965C53.1408 24.8965 53.8055 24.8965 54.5052 24.8965C54.5052 25.6118 54.5052 26.3271 54.5052 27.0801C53.8405 27.0801 53.1932 27.0801 52.4761 27.0801Z" fill="#F1897B"/>
<path d="M58.7194 24.8965C58.7194 25.6306 58.7194 26.3083 58.7194 27.0612C58.0548 27.0612 57.4076 27.0612 56.6904 27.0612C56.6904 26.3648 56.6904 25.6494 56.6904 24.8965C57.3551 24.8965 58.0023 24.8965 58.7194 24.8965Z" fill="#F1897B"/>
</svg>
