<svg width="70" height="70" viewBox="0 0 70 70" fill="none" xmlns="http://www.w3.org/2000/svg">
<path d="M2.46401 69.9559C2.46401 65.2263 2.4439 60.557 2.48412 55.8677C2.48412 55.1431 2.6852 54.4186 2.88627 53.7343C4.19327 49.1255 8.39577 45.9053 13.1613 45.865C16.479 45.8449 19.7968 45.8248 23.1146 45.865C28.9659 45.9254 33.7515 50.6953 33.8118 56.552C33.8521 60.9998 33.8118 65.4476 33.8118 69.9559C23.3559 69.9559 12.9401 69.9559 2.46401 69.9559ZM4.95736 67.5609C13.7444 67.5609 22.5516 67.5609 31.3587 67.5609C31.3587 63.6967 31.4794 59.8727 31.3185 56.0488C31.1978 53.1305 29.6294 50.8764 27.0959 49.4072C25.4471 48.4412 23.6575 48.1594 21.7473 48.3405C21.6869 50.2726 21.707 52.1041 22.2499 53.9154C22.9738 56.4714 23.5569 59.0677 24.2004 61.6438C24.3009 62.0061 24.3009 62.2476 23.9189 62.4287C22.0891 63.3143 20.2794 64.2401 18.4697 65.1458C18.3088 65.2263 18.0676 65.2665 17.9268 65.2061C15.916 64.22 13.9254 63.2137 11.9347 62.2275C11.9749 62.0262 11.9749 61.8853 12.0151 61.7243C12.7591 58.7256 13.5835 55.7469 14.227 52.728C14.5286 51.2991 14.5085 49.8097 14.6291 48.2802C14.0862 48.2802 13.7444 48.2802 13.4026 48.2802C9.07943 48.3204 5.41984 51.2186 5.03779 55.5255C4.69596 59.4903 4.95736 63.4954 4.95736 67.5609ZM16.66 53.1305C16.0166 55.7469 15.3731 58.3029 14.7297 60.9193C15.8155 61.4627 16.841 61.986 17.8866 62.469C18.0676 62.5495 18.3692 62.5092 18.5702 62.4086C19.4148 62.0262 20.2191 61.5633 21.0636 61.1809C21.5261 60.9797 21.5462 60.6979 21.4255 60.2954C21.2647 59.7319 21.144 59.1885 21.0033 58.6249C20.5408 56.7935 20.0783 54.962 19.6158 53.1305C18.5903 53.1305 17.6654 53.1305 16.66 53.1305ZM19.3142 48.3405C18.53 48.3405 17.7458 48.3405 16.9616 48.3405C16.9616 49.1254 16.9616 49.8902 16.9616 50.6349C17.7659 50.6349 18.53 50.6349 19.3142 50.6349C19.3142 49.85 19.3142 49.1254 19.3142 48.3405Z" fill="#F1897B"/>
<path d="M67.5921 70.0002C57.0959 70.0002 46.7002 70.0002 36.2643 70.0002C36.2442 69.7587 36.2241 69.5373 36.2241 69.3159C36.2241 65.17 36.2241 61.024 36.2241 56.8579C36.2442 50.6591 41.0097 45.8893 47.223 45.8691C50.3397 45.8691 53.4564 45.8691 56.5731 45.8691C62.7863 45.8893 67.5518 50.6591 67.572 56.8579C67.5921 61.0039 67.572 65.1499 67.572 69.3159C67.5921 69.5172 67.5921 69.7185 67.5921 70.0002ZM65.1389 67.5851C65.1389 63.6807 65.2194 59.8165 65.0987 55.9925C65.0183 53.7183 63.9325 51.8063 62.1831 50.317C60.2729 48.6868 58.0208 48.1031 55.5476 48.3446C55.4873 50.2365 55.5074 52.0478 56.0101 53.8592C56.7339 56.4353 57.3171 59.0718 58.0007 61.6681C58.1012 62.0907 58.0409 62.292 57.6589 62.4932C55.8693 63.3586 54.1199 64.2643 52.3304 65.1297C52.1092 65.2304 51.7472 65.2505 51.5059 65.1297C49.7164 64.2643 47.967 63.3586 46.1774 62.4932C45.7954 62.3121 45.6948 62.131 45.7954 61.6882C46.3785 59.4743 46.8812 57.2403 47.4844 55.0466C48.0876 52.8529 48.53 50.6591 48.2083 48.3245C47.6654 48.3245 47.1225 48.3044 46.5796 48.3245C42.3771 48.5258 38.7778 52.0679 38.6773 56.2743C38.5767 59.9976 38.6571 63.7209 38.6571 67.4442C38.6571 67.4845 38.6974 67.5247 38.7376 67.6052C47.5045 67.5851 56.2916 67.5851 65.1389 67.5851ZM50.4402 53.1346C49.8169 55.59 49.1936 58.0454 48.6104 60.5007C48.5702 60.6819 48.7512 61.0039 48.9121 61.1045C49.7566 61.5876 50.6413 62.0102 51.526 62.4328C51.7271 62.5335 52.069 62.5335 52.27 62.4328C53.1548 62.0303 54.0395 61.5876 54.884 61.1247C55.0449 61.0442 55.2259 60.7423 55.2057 60.5813C54.6226 58.1058 53.9993 55.6303 53.376 53.1548C52.3706 53.1346 51.4255 53.1346 50.4402 53.1346ZM53.0743 50.6793C53.0743 49.8541 53.0743 49.1094 53.0743 48.3446C52.27 48.3446 51.526 48.3446 50.7418 48.3446C50.7418 49.1497 50.7418 49.9145 50.7418 50.6793C51.5462 50.6793 52.2901 50.6793 53.0743 50.6793Z" fill="#F1897B"/>
<path d="M9.72204 33.7925C11.1296 28.7207 14.8696 25.9433 19.233 26.6276C23.717 27.332 26.713 30.9346 26.5722 35.4227C26.4315 39.5686 23.0735 43.0504 18.8509 43.4328C14.5077 43.8353 10.7274 40.8768 9.76226 36.2076C8.57591 36.2076 7.34934 36.2076 6.12278 36.2076C4.77556 36.2076 3.549 35.8252 2.46319 35C0.89479 33.8126 0.0502691 32.2427 0.0301615 30.2905C-0.0100538 26.1848 -0.0100538 22.0992 0.0301615 17.9935C0.0502691 14.7331 2.68437 12.1167 5.96192 12.0765C8.77699 12.0362 11.5921 12.0765 14.4675 12.0765C14.4675 10.7482 14.4675 9.43998 14.4675 8.23242C16.1766 9.94313 17.8857 11.6538 19.5346 13.3042C17.9461 14.8941 16.2168 16.6048 14.5278 18.3156C14.5278 17.1482 14.5278 15.8803 14.5278 14.4916C14.2463 14.4916 14.005 14.4916 13.7637 14.4916C11.2703 14.4916 8.79709 14.4916 6.30375 14.4916C3.95115 14.4916 2.44308 16.0212 2.44308 18.3759C2.44308 22.22 2.44308 26.0641 2.44308 29.9283C2.44308 32.3232 3.95115 33.8126 6.36407 33.8126C7.4901 33.7924 8.61613 33.7925 9.72204 33.7925ZM12.0947 35C12.0947 38.3007 14.7691 41.0177 18.0667 41.0378C21.4448 41.0579 24.1593 38.3409 24.1593 34.9598C24.1593 31.6792 21.4448 28.9622 18.1471 28.9622C14.8093 28.9622 12.0947 31.6591 12.0947 35Z" fill="#F1897B"/>
<path d="M55.5476 14.5128C55.5476 15.8209 55.5476 17.0889 55.5476 18.2159C53.8787 16.5455 52.1494 14.8348 50.4805 13.1643C52.0489 11.5945 53.7581 9.88378 55.5074 8.13281C55.5074 9.40075 55.5074 10.6888 55.5074 12.0574C55.8493 12.0574 56.1308 12.0574 56.3922 12.0574C58.9056 12.0574 61.4191 12.0373 63.9325 12.0574C67.3307 12.0775 69.9648 14.6939 69.9849 18.0751C70.005 22.1003 70.005 26.1255 69.9849 30.1507C69.9648 33.552 67.3307 36.1482 63.9526 36.1885C62.7261 36.2086 61.4995 36.1885 60.293 36.1885C59.1067 41.9646 54.2607 43.8363 50.9229 43.3735C46.3987 42.7294 43.3423 39.1671 43.4428 34.6991C43.5434 30.4727 46.8611 26.9305 51.1642 26.5481C55.2259 26.1858 59.3681 28.8827 60.2327 33.6526C61.7609 33.6526 63.2891 33.8136 64.777 33.6123C66.4259 33.391 67.5519 31.9016 67.5519 30.2312C67.572 26.1255 67.5921 22.0399 67.5519 17.9342C67.5318 16.0222 65.9634 14.4926 64.0733 14.4524C61.3386 14.4121 58.604 14.4323 55.8492 14.4524C55.7889 14.4725 55.6884 14.5128 55.5476 14.5128ZM51.888 41.0388C55.2259 41.0388 57.9203 38.3419 57.9404 35.001C57.9404 31.6802 55.2259 28.9632 51.888 28.9632C48.5904 28.9834 45.896 31.6601 45.8759 34.9608C45.8557 38.3017 48.5703 41.0388 51.888 41.0388Z" fill="#F1897B"/>
<path d="M31.3975 0C33.8506 0 36.1831 0 38.6362 0C38.6362 0.825166 38.6563 1.65033 38.6362 2.45537C38.6161 2.87802 38.777 3.05915 39.1389 3.24029C40.0035 3.68306 40.848 4.16608 41.6725 4.70949C41.9942 4.91075 42.2154 4.97113 42.5371 4.74974C43.2208 4.32709 43.9245 3.9447 44.7087 3.4818C45.9152 5.5749 47.1015 7.62776 48.3281 9.74099C47.6042 10.1636 46.9004 10.6064 46.1766 10.9888C45.7945 11.1901 45.7342 11.4316 45.7543 11.8341C45.7945 12.78 45.7945 13.7461 45.7543 14.692C45.7342 15.0945 45.7744 15.336 46.1565 15.5373C46.8602 15.8995 47.5439 16.3222 48.308 16.765C47.1015 18.8581 45.9152 20.9109 44.7087 23.0242C43.9446 22.6015 43.2208 22.199 42.5371 21.7763C42.2154 21.5751 41.9942 21.6153 41.6725 21.8166C40.8279 22.36 39.9432 22.8028 39.0786 23.3462C38.8775 23.4669 38.6563 23.7688 38.6563 23.9902C38.596 24.8154 38.6362 25.6405 38.6362 26.506C36.2233 26.506 33.8707 26.506 31.3975 26.506C31.3975 25.7009 31.3773 24.8959 31.3975 24.0707C31.4176 23.6481 31.2567 23.4669 30.8948 23.2858C30.0301 22.843 29.1856 22.36 28.3612 21.8166C28.0395 21.6153 27.8183 21.555 27.4966 21.7763C26.8129 22.199 26.1091 22.5814 25.3249 23.0443C24.1185 20.9512 22.9321 18.8983 21.7056 16.7851C22.4294 16.3624 23.1332 15.9197 23.8571 15.5373C24.2391 15.336 24.2995 15.0945 24.2793 14.692C24.219 13.7461 24.219 12.78 24.2793 11.8341C24.2995 11.4316 24.2592 11.1901 23.8772 10.9888C23.1734 10.6265 22.4898 10.2039 21.7257 9.76111C22.9321 7.66801 24.1185 5.61516 25.345 3.4818C26.1091 3.92457 26.8129 4.30697 27.5167 4.74974C27.8384 4.951 28.0596 4.91075 28.3813 4.70949C29.2258 4.16608 30.1106 3.72331 30.9752 3.17991C31.1763 3.05915 31.3975 2.75726 31.3975 2.53588C31.4176 1.71071 31.3975 0.885544 31.3975 0ZM36.2233 2.43525C35.3587 2.43525 34.6147 2.43525 33.8305 2.43525C33.8305 2.61638 33.8104 2.75726 33.8104 2.91827C33.8104 3.52205 34.0114 4.26671 33.7299 4.68936C33.4685 5.09188 32.6843 5.15226 32.1414 5.33339C30.6334 5.85667 29.4269 6.84284 28.3612 7.99003C27.6373 7.58751 26.9336 7.20511 26.2298 6.80259C25.8075 7.52713 25.4456 8.17116 25.0434 8.87557C25.6266 9.21771 26.1494 9.53973 26.6923 9.82149C27.0341 10.0026 27.1547 10.224 27.0341 10.6064C26.451 12.3775 26.451 14.1687 27.0341 15.9398C27.1547 16.3222 27.0341 16.5235 26.6923 16.7046C26.1494 16.9864 25.6064 17.3285 25.0434 17.6706C25.4657 18.3952 25.8477 19.0392 26.2499 19.7436C26.9939 19.321 27.6574 18.9386 28.3813 18.5361C29.7486 20.126 31.4176 21.1524 33.4484 21.6153C33.6093 21.6556 33.7903 21.9977 33.8104 22.199C33.8506 22.843 33.8305 23.4871 33.8305 24.0908C34.6951 24.0908 35.4391 24.0908 36.2434 24.0908C36.2434 23.4669 36.2635 22.9034 36.2434 22.3399C36.2233 21.8568 36.3439 21.6556 36.8466 21.5147C37.6107 21.3134 38.415 21.0719 39.0786 20.6493C40.0236 20.0656 40.8883 19.321 41.8333 18.5964C42.4366 18.9386 43.1403 19.321 43.8441 19.7034C44.2462 18.999 44.6283 18.3348 45.0304 17.6304C44.4473 17.2882 43.9245 16.9662 43.3615 16.6845C42.9996 16.5033 42.899 16.2819 43.0398 15.8995C43.6229 14.1285 43.6229 12.3372 43.0398 10.5662C42.9191 10.1838 43.0398 9.9825 43.3816 9.80137C43.9245 9.5196 44.4674 9.17746 45.0304 8.85544C44.6082 8.13091 44.2261 7.48688 43.824 6.78247C43.08 7.20511 42.4164 7.58751 41.7931 7.92965C40.9687 7.26549 40.2448 6.54095 39.3802 6.0378C38.4955 5.53465 37.47 5.29314 36.545 4.89062C36.4043 4.83024 36.2635 4.5686 36.2434 4.38747C36.2032 3.76356 36.2233 3.11953 36.2233 2.43525Z" fill="#F1897B"/>
<path d="M41.0509 13.3252C41.0107 16.646 38.276 19.3429 34.9382 19.3026C31.6204 19.2825 28.9461 16.5252 28.9863 13.1642C29.0265 9.8434 31.7813 7.18676 35.1392 7.22701C38.4168 7.26727 41.071 10.0245 41.0509 13.3252ZM38.638 13.2648C38.638 11.2925 37.0092 9.66226 35.0588 9.64214C33.048 9.64214 31.3992 11.2723 31.3992 13.2648C31.3992 15.2372 33.0078 16.8674 34.9784 16.8875C36.9891 16.9076 38.6179 15.2774 38.638 13.2648Z" fill="#F1897B"/>
</svg>
