<svg width="65" height="71" viewBox="0 0 65 71" fill="none" xmlns="http://www.w3.org/2000/svg">
<path d="M24.2571 70.6641C19.4923 68.8523 14.7109 67.0235 9.91277 65.1946C9.87945 65.3314 9.84613 65.451 9.82947 65.5878C9.51292 67.4166 8.41336 68.5276 6.61406 68.6814C5.49784 68.7669 4.34829 68.784 3.2154 68.6814C1.33281 68.5105 0.149942 67.1944 0.033321 65.2801C-0.0166593 64.6477 7.62143e-07 63.9982 0.033321 63.3658C0.0499811 62.6992 0.449823 62.2719 0.982947 62.2548C1.54939 62.2377 1.96589 62.665 1.98255 63.3829C1.99921 63.9811 1.96589 64.5622 1.99921 65.1605C2.03253 66.1005 2.59898 66.6816 3.51528 66.7158C4.43159 66.75 5.33123 66.7329 6.24754 66.7158C7.31379 66.6987 7.88023 66.1176 7.88023 65.0066C7.89689 63.024 7.88023 61.0413 7.88023 59.0586C7.88023 53.7943 7.88023 48.53 7.88023 43.2657C7.88023 41.6932 7.38043 41.1805 5.8477 41.1805C5.13131 41.1805 4.43159 41.1634 3.7152 41.1805C2.53234 41.2147 1.96589 41.7958 1.96589 43.0093C1.96589 47.4703 1.96589 51.9484 1.96589 56.4094C1.96589 57.4862 1.66601 57.9648 0.999607 57.9818C0.333202 57.9818 0 57.5033 0 56.4436C0 52.0168 0 47.6071 0 43.1802C0 40.6165 1.36613 39.2149 3.88181 39.2149C4.69815 39.2149 5.53116 39.1978 6.3475 39.2149C8.36337 39.2833 9.69619 40.6165 9.82947 42.6846C9.84613 42.8384 9.84613 42.9922 9.86279 43.2315C10.3293 43.2315 10.7624 43.2315 11.2123 43.2315C11.6454 43.2315 12.0952 43.2315 12.6284 43.2315C12.6284 42.941 12.6284 42.6846 12.6284 42.4111C12.6284 35.318 12.6284 28.2419 12.6284 21.1487C12.6284 19.1661 13.0282 18.7388 14.9608 18.7217C15.144 18.7217 15.3106 18.7217 15.5939 18.7217C15.5939 18.0209 15.5939 17.3372 15.5939 16.6707C15.5939 15.3033 16.1603 14.7051 17.4765 14.688C19.6922 14.6709 21.9247 14.6709 24.1405 14.688C25.44 14.7051 25.9731 15.2862 25.9898 16.6365C25.9898 17.3031 25.9898 17.9526 25.9898 18.6704C26.6562 18.6704 27.2726 18.6704 27.9557 18.6704C27.9557 14.4145 27.9557 10.1757 27.9557 5.91983C26.5229 5.73182 26.2397 5.40707 26.2397 3.95426C26.2397 3.42441 26.2397 2.91165 26.2397 2.3818C26.2397 1.13409 26.6895 0.689701 27.8724 0.672609C28.8553 0.672609 29.8216 0.672609 30.8045 0.672609C34.9862 0.672609 39.1513 0.672609 43.3329 0.672609C43.5495 0.672609 43.7828 0.655517 43.9993 0.6897C44.5325 0.77516 44.849 1.13409 44.8324 1.68103C44.8324 2.1767 44.5658 2.55272 44.0493 2.62109C43.7828 2.65527 43.5162 2.67236 43.2496 2.67236C38.5182 2.67236 33.7867 2.67236 29.0552 2.67236C28.7887 2.67236 28.5221 2.67236 28.2056 2.67236C28.2056 3.08257 28.2056 3.42441 28.2056 3.80043C37.3186 3.80043 46.3817 3.80043 55.4948 3.80043C55.4948 3.4415 55.4948 3.09966 55.4948 2.70655C55.2616 2.68946 55.0283 2.67236 54.7951 2.67236C53.379 2.67236 51.9462 2.67236 50.5301 2.67236C50.3135 2.67236 50.0803 2.67236 49.8637 2.63818C49.3306 2.55272 49.014 2.21088 49.0307 1.66394C49.0474 1.06572 49.3972 0.706792 49.947 0.6897C52.0628 0.655517 54.162 0.655517 56.2778 0.6897C56.9776 0.706792 57.4107 1.20246 57.4441 1.93741C57.494 2.63818 57.4774 3.35604 57.4607 4.05681C57.4607 5.32161 57.2441 5.59508 56.0279 5.91983C56.0279 20.1745 56.0279 34.4463 56.0279 48.8548C56.9276 48.2394 57.7439 47.6583 58.5769 47.1114C60.4762 45.8808 62.6254 46.1542 63.9915 47.778C65.3576 49.4188 65.3576 51.7946 63.8582 53.2987C62.2088 54.9566 60.4595 56.5119 58.7435 58.0844C56.3278 60.3064 53.8955 62.4941 51.5131 64.7673C49.6638 66.5278 47.5146 67.4508 45.0323 67.7926C38.7847 68.6643 32.5539 69.6215 26.323 70.5444C26.2397 70.5615 26.173 70.6128 26.0897 70.647C25.5066 70.6641 24.8735 70.6641 24.2571 70.6641ZM9.87944 62.9727C10.0294 63.0411 10.1793 63.1094 10.3126 63.1607C14.7442 64.887 19.1758 66.6475 23.624 68.3054C24.4237 68.5959 25.39 68.6472 26.2397 68.5276C32.304 67.673 38.3516 66.7158 44.4325 65.8783C46.7816 65.5536 48.7975 64.7332 50.5468 63.024C52.9125 60.7166 55.3782 58.5288 57.8106 56.2897C59.31 54.9053 60.8261 53.5209 62.3088 52.1193C63.0585 51.4015 63.2584 50.3589 62.8586 49.5043C62.4421 48.6497 61.5758 48.1711 60.6428 48.3591C60.2263 48.4446 59.8098 48.6667 59.4433 48.9231C55.3449 51.7262 51.2465 54.5464 47.1481 57.3324C46.7982 57.5716 46.3318 57.7426 45.9319 57.7426C44.9156 57.7426 43.8827 57.6742 42.8665 57.5716C38.3516 57.1443 33.8533 56.7 29.3385 56.2556C27.2226 56.0505 25.0901 55.8283 22.9743 55.6061C22.2746 55.5377 21.908 55.1275 21.958 54.5122C22.008 53.914 22.4412 53.5721 23.1409 53.6234C23.1909 53.6234 23.2242 53.6405 23.2742 53.6405C28.3388 54.1533 33.3869 54.6489 38.4515 55.1617C39.3678 55.2471 40.2841 55.3326 41.2171 55.401C41.1171 53.179 39.751 51.7091 37.5519 51.4185C35.0862 51.0938 32.6205 50.7691 30.1381 50.564C26.4396 50.2392 22.9576 49.3162 19.7089 47.3849C16.7267 45.6073 13.428 45.0604 10.0127 45.2313C9.96274 45.2313 9.8961 45.2826 9.84612 45.3167C9.87944 51.2135 9.87944 57.0931 9.87944 62.9727ZM43.2496 55.6061C43.8994 55.6573 44.4992 55.6744 45.0823 55.7599C45.682 55.8283 46.1818 55.6744 46.6816 55.3155C48.9474 53.726 51.2465 52.1535 53.5456 50.5981C53.9454 50.3247 54.0954 50.0512 54.0954 49.5555C54.0787 35.2496 54.0787 20.9265 54.0787 6.6206C54.0787 6.38131 54.0787 6.14203 54.0787 5.90274C45.9819 5.90274 38.0017 5.90274 30.0049 5.90274C30.0049 20.1232 30.0049 34.3095 30.0049 48.5471C30.4214 48.5813 30.8045 48.6155 31.2377 48.6667C31.2377 48.3078 31.2377 48.0343 31.2377 47.7609C31.2377 46.8721 31.221 45.9833 31.2544 45.0945C31.2877 44.2399 31.7042 43.7614 32.4539 43.7443C33.77 43.7101 35.0695 43.7101 36.3857 43.7443C36.9854 43.7614 37.3853 44.1203 37.4852 44.7356C37.5519 45.0603 37.5519 45.4193 37.5519 45.7611C37.5519 46.9917 37.5519 48.2053 37.5519 49.4359C38.035 49.5043 38.4182 49.5726 38.868 49.641C38.868 48.2224 38.868 46.855 38.868 45.4877C38.868 44.0861 39.2346 43.7272 40.6173 43.7272C41.617 43.7272 42.6166 43.7272 43.6162 43.7272C44.7157 43.7443 45.1489 44.1887 45.1656 45.2996C45.1822 46.6157 45.1656 47.9489 45.1656 49.265C45.1656 50.5298 44.7324 50.9742 43.4662 50.9742C42.7665 50.9742 42.0668 50.9742 41.2004 50.9742C42.5832 52.3073 43.1663 53.8456 43.2496 55.6061ZM27.9723 29.199C25.6566 29.199 23.4241 29.199 21.175 29.199C19.8589 29.199 18.5594 29.2161 17.2432 29.199C16.2769 29.1819 15.8604 28.7376 15.8604 27.7633C15.8438 27.0284 15.8604 26.3105 15.8604 25.5756C15.8604 24.1398 16.1936 23.8151 17.5931 23.8151C20.7918 23.8151 23.9906 23.8151 27.1893 23.8151C27.4392 23.8151 27.7058 23.8151 27.9557 23.8151C27.9557 22.7212 27.9557 21.7299 27.9557 20.7727C23.4741 20.7727 19.0592 20.7727 14.5776 20.7727C14.5776 21.0975 14.5776 21.3709 14.5776 21.6444C14.5776 28.5325 14.5776 35.4034 14.5776 42.2915C14.5776 43.6759 14.2944 43.4366 15.8604 43.7101C15.8604 43.0606 15.8604 42.4282 15.8604 41.8129C15.8604 40.5652 16.2436 40.1892 17.4598 40.1892C20.7252 40.1892 23.9906 40.1892 27.2559 40.1892C27.4892 40.1892 27.7224 40.1892 27.9723 40.1892C27.9723 39.2149 27.9723 38.3261 27.9723 37.369C27.6724 37.369 27.4225 37.369 27.156 37.369C23.9406 37.369 20.7085 37.369 17.4931 37.369C16.2103 37.369 15.8604 37.0101 15.8604 35.7111C15.8604 35.0274 15.8604 34.3437 15.8604 33.66C15.8604 32.361 16.2269 31.985 17.4931 31.985C20.7585 31.985 24.0239 31.985 27.2893 31.985C27.5225 31.985 27.7557 31.985 27.989 31.985C27.9723 31.0108 27.9723 30.1562 27.9723 29.199ZM17.8596 35.335C21.2583 35.335 24.607 35.335 27.9723 35.335C27.9723 34.8907 27.9723 34.4804 27.9723 34.0532C24.5903 34.0532 21.225 34.0532 17.8596 34.0532C17.8596 34.4975 17.8596 34.8907 17.8596 35.335ZM17.8596 43.505C21.2916 43.505 24.6236 43.505 27.9723 43.505C27.9723 43.0435 27.9723 42.6504 27.9723 42.2402C24.5903 42.2402 21.2416 42.2402 17.8596 42.2402C17.8596 42.6675 17.8596 43.0606 17.8596 43.505ZM17.843 27.148C21.2416 27.148 24.5903 27.148 27.939 27.148C27.939 26.6865 27.939 26.2763 27.939 25.8661C24.5403 25.8661 21.1917 25.8661 17.843 25.8661C17.843 26.3105 17.843 26.7036 17.843 27.148ZM17.6097 18.6704C19.7756 18.6704 21.8747 18.6704 24.0072 18.6704C24.0072 17.9867 24.0072 17.3543 24.0072 16.7048C21.8414 16.7048 19.7589 16.7048 17.6097 16.7048C17.6097 17.3543 17.6097 17.9867 17.6097 18.6704ZM27.9723 45.5731C25.5399 45.5731 23.1909 45.5731 20.8418 45.5731C23.0076 47.043 25.3733 47.9489 27.9723 48.2736C27.9723 47.3336 27.9723 46.479 27.9723 45.5731ZM35.5527 48.906C35.5527 47.8292 35.5527 46.7866 35.5527 45.7269C34.753 45.7269 34.0199 45.7269 33.2536 45.7269C33.2536 46.8037 33.2536 47.8634 33.2536 48.906C34.0366 48.906 34.7863 48.906 35.5527 48.906ZM43.1663 48.8889C43.1663 47.7951 43.1663 46.7695 43.1663 45.7098C42.3833 45.7098 41.6336 45.7098 40.8506 45.7098C40.8506 46.7866 40.8506 47.8122 40.8506 48.8889C41.617 48.8889 42.3667 48.8889 43.1663 48.8889Z" fill="#F1897B"/>
<path d="M31.2545 35.5552C31.2545 34.8545 31.2378 34.1366 31.2545 33.4358C31.2878 32.4274 31.7376 31.983 32.7039 31.9659C33.8368 31.9489 34.9697 31.9489 36.1026 31.9659C37.0522 31.983 37.5353 32.4445 37.552 33.4358C37.5853 34.8716 37.5687 36.3073 37.552 37.743C37.5353 38.7343 37.0522 39.1958 36.1026 39.2129C34.9697 39.23 33.8368 39.23 32.7039 39.2129C31.7376 39.1958 31.2878 38.7514 31.2545 37.743C31.2378 37.0251 31.2545 36.2902 31.2545 35.5552ZM33.2204 37.179C34.0201 37.179 34.7698 37.179 35.5528 37.179C35.5528 36.1193 35.5528 35.0938 35.5528 34.0341C34.7698 34.0341 34.0034 34.0341 33.2204 34.0341C33.2204 35.0767 33.2204 36.0851 33.2204 37.179Z" fill="#F1897B"/>
<path d="M37.5682 23.9172C37.5682 24.6008 37.5849 25.2845 37.5682 25.9682C37.5515 27.0108 37.1017 27.4723 36.1021 27.4894C34.9692 27.5065 33.8363 27.5065 32.7034 27.4894C31.7205 27.4723 31.2707 27.045 31.254 26.0195C31.2207 24.5837 31.2207 23.148 31.254 21.7123C31.2707 20.721 31.7371 20.2595 32.7034 20.2424C33.8363 20.2253 34.9692 20.2082 36.1021 20.2424C37.085 20.2595 37.5349 20.7552 37.5515 21.7978C37.5682 22.4985 37.5682 23.2164 37.5682 23.9172ZM33.2532 22.2934C33.2532 23.3702 33.2532 24.4299 33.2532 25.4725C34.0529 25.4725 34.7859 25.4725 35.5523 25.4725C35.5523 24.3786 35.5523 23.336 35.5523 22.2934C34.7526 22.2934 34.0029 22.2934 33.2532 22.2934Z" fill="#F1897B"/>
<path d="M37.5686 12.2091C37.5686 12.9098 37.5853 13.6277 37.5686 14.3285C37.5353 15.2856 37.0855 15.7642 36.1692 15.7813C34.9863 15.8155 33.8201 15.8155 32.6372 15.7813C31.7376 15.7471 31.2877 15.2856 31.2711 14.3626C31.2378 12.8757 31.2378 11.4057 31.2711 9.91875C31.2877 8.99578 31.7542 8.5514 32.6539 8.5343C33.8367 8.51721 35.003 8.51721 36.1858 8.5343C37.0855 8.5514 37.5186 9.01288 37.5686 9.93584C37.5853 10.705 37.5686 11.457 37.5686 12.2091ZM35.5694 10.5853C34.7531 10.5853 33.9867 10.5853 33.237 10.5853C33.237 11.6792 33.237 12.7047 33.237 13.7473C34.0367 13.7473 34.803 13.7473 35.5694 13.7473C35.5694 12.6705 35.5694 11.6621 35.5694 10.5853Z" fill="#F1897B"/>
<path d="M46.4981 35.5557C46.4981 34.855 46.4815 34.1371 46.4981 33.4363C46.5148 32.4792 46.9646 32.0006 47.8809 31.9835C49.0638 31.9664 50.23 31.9664 51.4129 31.9835C52.2958 32.0006 52.7623 32.4792 52.779 33.4022C52.7956 34.8891 52.7956 36.3591 52.779 37.846C52.7623 38.7519 52.2792 39.2134 51.3962 39.2305C50.2133 39.2476 49.0471 39.2476 47.8643 39.2305C46.9813 39.2134 46.5314 38.7348 46.4981 37.829C46.4981 37.0598 46.4981 36.3078 46.4981 35.5557ZM50.7964 37.1795C50.7964 36.0856 50.7964 35.0772 50.7964 34.0175C50.0134 34.0175 49.2637 34.0175 48.4807 34.0175C48.4807 35.0772 48.4807 36.1027 48.4807 37.1795C49.2637 37.1795 49.9967 37.1795 50.7964 37.1795Z" fill="#F1897B"/>
<path d="M45.1821 35.5723C45.1821 36.2731 45.1987 36.991 45.1821 37.6917C45.1654 38.7173 44.7156 39.2129 43.716 39.2129C42.5831 39.23 41.4502 39.23 40.3173 39.2129C39.351 39.1958 38.9012 38.7514 38.8846 37.743C38.8679 36.3073 38.8679 34.8716 38.8846 33.4358C38.9012 32.4445 39.3511 31.983 40.334 31.9659C41.4669 31.9489 42.5998 31.9489 43.7327 31.9659C44.6823 31.983 45.1654 32.4616 45.1821 33.4358C45.1821 34.1537 45.1821 34.8545 45.1821 35.5723ZM40.8671 34.017C40.8671 35.0938 40.8671 36.1193 40.8671 37.1619C41.6668 37.1619 42.3998 37.1619 43.1662 37.1619C43.1662 36.0851 43.1662 35.0596 43.1662 34.017C42.3665 34.017 41.6168 34.017 40.8671 34.017Z" fill="#F1897B"/>
<path d="M52.7958 12.1422C52.7958 12.8772 52.8125 13.5951 52.7958 14.33C52.7791 15.253 52.346 15.7486 51.463 15.7828C50.2468 15.817 49.014 15.817 47.7978 15.7828C46.9314 15.7486 46.5149 15.253 46.5149 14.3642C46.4983 12.8772 46.4983 11.4073 46.5149 9.92029C46.5316 9.03151 46.9648 8.57003 47.8311 8.55294C49.0306 8.51876 50.2301 8.53585 51.4297 8.55294C52.3293 8.57003 52.7791 9.04861 52.7958 9.95448C52.7958 10.6894 52.7958 11.4244 52.7958 12.1422ZM50.7799 13.7489C50.7799 12.655 50.7799 11.6124 50.7799 10.5698C49.9802 10.5698 49.2472 10.5698 48.4642 10.5698C48.4642 11.6466 48.4642 12.6892 48.4642 13.7489C49.2472 13.7489 49.9969 13.7489 50.7799 13.7489Z" fill="#F1897B"/>
<path d="M52.7958 23.8855C52.7958 24.6204 52.8125 25.3383 52.7958 26.0732C52.7791 26.9962 52.3293 27.4748 51.4463 27.4919C50.2468 27.509 49.0473 27.509 47.8477 27.4919C46.9648 27.4748 46.5149 26.9962 46.5149 26.0732C46.4983 24.6204 46.4983 23.1505 46.5149 21.6977C46.5316 20.7747 46.9648 20.2961 47.8477 20.262C49.0473 20.2278 50.2468 20.2278 51.4463 20.262C52.3293 20.2961 52.7791 20.7918 52.7958 21.6977C52.7958 22.4156 52.7958 23.1505 52.7958 23.8855ZM50.7966 25.4921C50.7966 24.3982 50.7966 23.3556 50.7966 22.2959C50.0136 22.2959 49.2639 22.2959 48.4975 22.2959C48.4975 23.3727 48.4975 24.4324 48.4975 25.4921C49.2639 25.4921 49.9969 25.4921 50.7966 25.4921Z" fill="#F1897B"/>
<path d="M46.4981 47.2803C46.4981 46.5454 46.4815 45.8275 46.4981 45.0926C46.5148 44.2038 46.9479 43.7252 47.7976 43.7081C49.0138 43.691 50.2466 43.691 51.4628 43.7081C52.3125 43.7252 52.7623 44.2038 52.779 45.0926C52.7956 46.5796 52.7956 48.0495 52.779 49.5365C52.7623 50.4082 52.3292 50.9038 51.4795 50.938C50.2633 50.9722 49.0305 50.9722 47.8143 50.938C46.9313 50.9038 46.5314 50.4082 46.4981 49.4681C46.4981 49.4168 46.4981 49.3827 46.4981 49.3314C46.4981 48.6477 46.4981 47.964 46.4981 47.2803ZM50.7964 45.725C49.9801 45.725 49.2304 45.725 48.464 45.725C48.464 46.8018 48.464 47.8444 48.464 48.8699C49.2637 48.8699 50.0301 48.8699 50.7964 48.8699C50.7964 47.8102 50.7964 46.7847 50.7964 45.725Z" fill="#F1897B"/>
<path d="M38.8848 23.8311C38.8848 23.0962 38.8682 22.3783 38.8848 21.6434C38.9182 20.7546 39.3347 20.276 40.201 20.2589C41.4172 20.2247 42.65 20.2076 43.8662 20.2589C44.7159 20.2931 45.1657 20.7888 45.1824 21.6605C45.199 23.1475 45.199 24.6174 45.1824 26.1044C45.1657 26.976 44.6992 27.4546 43.8496 27.4717C42.6334 27.4888 41.4005 27.4888 40.1843 27.4717C39.368 27.4546 38.9182 26.9931 38.9015 26.1556C38.8682 25.3865 38.8848 24.6003 38.8848 23.8311ZM43.1665 25.472C43.1665 24.361 43.1665 23.3355 43.1665 22.2929C42.3668 22.2929 41.6338 22.2929 40.8507 22.2929C40.8507 23.3697 40.8507 24.3952 40.8507 25.472C41.6338 25.472 42.3835 25.472 43.1665 25.472Z" fill="#F1897B"/>
<path d="M38.8848 12.1061C38.8848 11.3541 38.8682 10.6021 38.8848 9.85001C38.9182 9.0296 39.3513 8.58521 40.1344 8.55103C41.3839 8.51684 42.6167 8.51684 43.8662 8.55103C44.6826 8.56812 45.1491 9.04669 45.1657 9.8842C45.199 11.3883 45.199 12.8924 45.1657 14.3965C45.1491 15.234 44.6992 15.7296 43.8996 15.7638C42.65 15.8151 41.4172 15.8151 40.1677 15.7638C39.318 15.7296 38.9015 15.2511 38.8848 14.3452C38.8682 13.6102 38.8848 12.8582 38.8848 12.1061ZM43.1498 13.747C43.1498 12.6702 43.1498 11.6105 43.1498 10.5679C42.3502 10.5679 41.6171 10.5679 40.8507 10.5679C40.8507 11.6618 40.8507 12.7044 40.8507 13.747C41.6671 13.747 42.4001 13.747 43.1498 13.747Z" fill="#F1897B"/>
</svg>
