<svg width="71" height="70" viewBox="0 0 71 70" fill="none" xmlns="http://www.w3.org/2000/svg">
<path d="M69.9831 32.5427C69.7462 33.7635 69.6369 35.039 69.236 36.2051C68.653 37.8997 68.0152 39.6125 67.1042 41.1248C61.4192 50.6179 55.6614 60.0382 49.9218 69.4949C49.8671 69.586 49.7942 69.6771 49.6667 69.8775C49.3023 69.2763 49.0107 68.7114 48.6099 68.2012C48.4459 67.9643 48.0815 67.7457 47.8264 67.7457C34.8712 67.7275 21.9161 67.7275 8.96096 67.7457C8.70587 67.7457 8.34144 67.9097 8.17746 68.1283C6.79266 69.8775 4.69725 70.4606 2.7476 69.6225C0.870836 68.8207 -0.258867 66.8164 0.0508902 64.8668C0.378868 62.7349 2.00054 61.2226 4.20528 60.9675C4.29638 60.9493 4.38749 60.9493 4.53326 60.9128C4.53326 59.3823 4.51504 57.8699 4.53326 56.3393C4.58792 53.4058 6.44646 50.8548 9.27072 49.9984C10.0907 49.7616 10.9653 49.6705 11.8217 49.6522C16.2311 49.6158 20.6588 49.634 25.0683 49.634C25.3416 49.634 25.615 49.634 25.8154 49.634C26.0705 48.8687 26.2162 48.1217 26.5624 47.4839C26.9269 46.8462 27.4917 46.336 28.0201 45.6983C27.8197 45.1699 27.2913 45.1152 26.7264 45.1152C23.6471 45.1152 20.586 45.1152 17.5066 45.1152C14.8828 45.1152 13.6802 43.9491 13.5344 41.3435C13.5162 41.0701 13.3704 40.7786 13.1882 40.5782C9.89023 36.442 6.59223 32.3241 3.29423 28.2061C-3.33822 19.8791 0.561079 7.78037 10.7648 5.01078C19.3652 2.67849 27.9655 8.25412 29.2045 17.0366C29.7693 21.0635 28.7672 24.7441 26.2527 27.9328C22.9365 32.1601 19.5656 36.3327 16.1947 40.5235C15.7392 41.0884 15.7027 41.6532 15.9396 42.2363C16.1765 42.8376 16.7413 42.9105 17.3062 42.9105C20.422 42.9105 23.5378 42.9287 26.6718 42.8922C28.2388 42.874 29.3867 43.4389 30.152 44.8237C30.2613 45.0059 30.6075 45.1152 30.8626 45.1516C33.7962 45.5343 35.6547 48.2674 34.7801 50.9824C34.2335 52.6951 33.0309 53.752 31.2817 54.0799C29.5325 54.3897 28.0383 53.8066 26.9451 52.3854C26.6718 52.0392 26.4349 51.9116 25.9976 51.9116C21.169 51.9299 16.3405 51.9116 11.5119 51.9299C8.72409 51.9299 6.84732 53.7884 6.79266 56.5762C6.77444 58.0703 6.77444 59.5827 6.79266 61.0768C6.79266 61.3137 6.92021 61.6234 7.10242 61.751C8.32322 62.662 8.94274 63.8464 9.05206 65.3952C21.6428 65.3952 34.2335 65.3952 46.9153 65.3952C46.7695 65.1401 46.6602 64.9214 46.5327 64.721C41.7952 56.9224 37.0577 49.1238 32.3385 41.3252C27.4735 33.2898 28.6579 23.5051 35.2356 16.9273C35.7641 16.3989 36.1649 15.7247 36.6569 15.1599C37.0395 14.7226 37.4586 14.2853 37.9506 13.9755C38.2968 13.7569 38.3879 13.5564 38.4061 13.1738C38.479 11.6979 38.4061 10.1855 38.7159 8.7643C39.6451 4.24549 43.4351 0.801725 48.0268 0.127548C48.1543 0.109327 48.2819 0.054663 48.4094 0C49.2294 0 50.0493 0 50.8693 0C50.9968 0.036442 51.1244 0.0911047 51.2519 0.109326C55.8618 0.801724 59.5789 4.06328 60.5993 8.58209C60.9455 10.058 60.8726 11.6432 60.9637 13.192C60.9819 13.5746 61.1095 13.7386 61.4192 13.9755C61.9659 14.3946 62.4032 14.9412 62.8769 15.4514C63.1502 15.7612 63.3324 16.1803 63.6422 16.4536C66.1931 18.8223 68.0699 21.6466 69.0538 24.981C69.4729 26.4022 69.6916 27.8964 70.0013 29.354C69.9831 30.4473 69.9831 31.4859 69.9831 32.5427ZM36.6387 18.7312C36.3836 19.0045 36.1831 19.2049 35.9827 19.4236C30.899 25.145 30.1702 33.4173 34.2153 40.1044C39.2078 48.3768 44.255 56.6309 49.2658 64.9032C49.3751 65.1036 49.5027 65.2859 49.6667 65.5409C50.6506 63.9193 51.6163 62.3523 52.5638 60.7853C56.8275 53.7702 61.2006 46.8098 65.3003 39.7036C68.7987 33.636 68.5436 27.4408 64.863 21.4643C64.2617 20.4986 63.4782 19.6422 62.7311 18.6765C61.8565 19.9702 60.7086 20.3893 59.3238 20.3711C64.0795 26.6755 62.0205 33.9093 57.939 37.4988C53.4566 41.4346 46.9153 41.7261 42.2143 38.173C39.882 36.4056 38.315 34.0915 37.6226 31.249C36.6751 27.2951 37.5315 23.6873 40.0642 20.3711C38.5883 20.3893 37.4586 19.9156 36.6387 18.7312ZM14.6641 38.7925C14.7552 38.7196 14.8099 38.6832 14.8463 38.6468C18.1079 34.5835 21.3877 30.5202 24.5946 26.4205C26.5807 23.8877 27.3642 20.9542 27.018 17.7655C26.198 10.2402 18.8914 4.93789 10.8742 7.36129C2.51072 9.89401 -0.422856 19.9156 5.07989 26.8578C6.90199 29.1536 8.74231 31.4494 10.5826 33.7453C11.9492 35.4034 13.2976 37.098 14.6641 38.7925ZM54.1308 13.9391C53.9122 13.8844 53.7482 13.848 53.5842 13.7933C51.2337 13.0098 48.9014 12.2081 46.5327 11.461C44.6559 10.8779 42.9431 12.1352 42.9249 14.1031C42.9067 15.4879 42.9067 16.8727 42.9249 18.2574C42.9978 21.5737 45.5305 24.3797 48.7921 24.7623C52.2358 25.1632 55.4974 23.1225 56.1534 19.8062C56.5542 17.8019 56.372 15.6883 56.4449 13.6293C56.4449 13.52 56.2991 13.3378 56.1898 13.3013C55.5521 13.1556 54.9143 13.0462 54.2401 12.9187C54.1855 13.3013 54.1673 13.5929 54.1308 13.9391ZM40.7019 13.1373C40.7748 12.9187 40.8295 12.7183 40.9024 12.4996C41.7588 9.91223 44.4555 8.47277 47.0611 9.25627C48.4277 9.65713 49.776 10.1491 51.1426 10.5864C51.343 10.6593 51.5434 10.6957 51.7439 10.7504C51.7985 10.6957 51.835 10.6228 51.8896 10.5682C51.3977 9.96689 50.9057 9.38382 50.3591 8.74608C50.6324 8.19945 50.9422 7.56172 51.2883 6.90576C52.6731 7.61638 53.4931 8.69142 53.9668 10.0944C54.0215 10.2766 54.1308 10.5317 54.2584 10.5682C54.9143 10.7504 55.6067 10.8597 56.3356 11.0055C56.1716 9.94867 55.5338 9.38382 54.8232 8.87363C55.1694 8.19945 55.4792 7.57994 55.8072 6.90576C57.2466 7.61638 58.0666 8.78252 58.6132 10.3678C58.2305 5.66673 53.9668 2.04075 49.3205 2.2594C43.8177 2.55094 40.538 6.63245 40.7019 13.1373ZM41.6312 22.175C39.4265 24.5801 38.807 29.354 40.4104 32.1601C41.2486 30.0829 42.6152 28.4794 44.6923 27.623C45.403 27.3315 45.6216 26.876 45.7127 26.1836C43.9271 25.2543 42.5787 23.9242 41.6312 22.175ZM58.9594 32.233C60.4717 29.0989 59.8887 24.489 57.7204 22.175C56.7729 23.9606 55.3881 25.309 53.4931 26.2747C53.7482 26.6938 53.8939 27.2586 54.2219 27.3862C56.4631 28.2972 58.0119 29.8824 58.9594 32.233ZM45.6216 37.517C46.0771 35.6767 46.4598 33.8728 47.0064 32.1236C47.3162 31.1397 47.1522 30.4655 46.3505 29.846C46.0225 29.5909 45.8038 29.5545 45.4576 29.7367C43.3987 30.7571 42.3783 32.4881 42.1414 34.711C42.1232 34.8568 42.1778 35.039 42.269 35.1483C43.1982 36.1505 44.2915 36.9522 45.6216 37.517ZM53.73 37.517C55.0419 36.9522 56.1169 36.1687 57.028 35.1848C57.1373 35.0754 57.192 34.8568 57.1737 34.711C56.9733 32.4881 55.9347 30.8117 53.9304 29.7731C53.5295 29.5545 53.2927 29.6274 52.9465 29.9189C52.1994 30.5202 51.9261 31.1761 52.3634 32.0872C52.4545 32.2694 52.4727 32.488 52.5092 32.6885C52.91 34.2555 53.3109 35.8589 53.73 37.517ZM4.49681 67.7093C5.75406 67.7275 6.75622 66.7435 6.77444 65.4863C6.79266 64.2473 5.79051 63.2269 4.55148 63.2087C3.31245 63.1904 2.29207 64.1744 2.27385 65.4316C2.27385 66.6889 3.23957 67.691 4.49681 67.7093ZM32.7394 49.6887C32.7576 48.4314 31.7554 47.4293 30.5164 47.4293C29.2592 47.4293 28.257 48.4132 28.2388 49.6522C28.2206 50.8913 29.2409 51.9116 30.4617 51.9299C31.7008 51.9481 32.7211 50.9277 32.7394 49.6887ZM51.5799 38.2823C51.0332 36.114 50.5413 34.1097 50.0311 32.1236C49.9764 31.9414 49.8124 31.7774 49.7031 31.6134C49.5756 31.7957 49.3751 31.9414 49.3205 32.1418C48.8285 34.0186 48.3548 35.9136 47.881 37.8086C47.8446 37.9361 47.881 38.0637 47.881 38.3005C49.1018 38.2823 50.2862 38.2823 51.5799 38.2823ZM47.8992 27.0217C47.5348 27.9328 47.7535 28.443 48.8832 29.2447C49.2658 29.518 50.268 29.4087 50.6324 29.0443C51.8714 27.8599 51.8714 27.8599 51.3612 27.0217C50.2133 27.0217 49.0836 27.0217 47.8992 27.0217ZM58.7407 18.0388C59.506 18.0206 60.326 18.3303 60.7815 17.4922C60.9455 17.1824 60.9273 16.6176 60.7268 16.3078C60.2531 15.5607 59.4696 15.8523 58.7407 15.8341C58.7407 16.6176 58.7407 17.31 58.7407 18.0388ZM40.6108 15.8158C39.8273 15.8887 38.9527 15.5425 38.5519 16.4536C38.4061 16.7815 38.479 17.3464 38.6794 17.6379C39.1714 18.3303 39.9367 18.0206 40.6108 18.057C40.6108 17.2735 40.6108 16.5993 40.6108 15.8158Z" fill="#F1897B"/>
<path d="M48.5185 53.4044C47.1702 52.0561 45.8218 50.7077 44.437 49.3229C44.929 48.8492 45.4574 48.3754 46.004 47.8652C46.7511 48.667 47.571 49.5051 48.3727 50.3615C51.2152 47.519 53.9302 44.7859 56.6633 42.0527C57.2646 42.654 57.7748 43.1642 58.2485 43.638C55.0234 46.8995 51.7801 50.1429 48.5185 53.4044Z" fill="#F1897B"/>
<path d="M6.79248 19.1684C6.8107 14.7954 10.3638 11.2787 14.7186 11.2969C19.1099 11.3334 22.5901 14.85 22.5719 19.2413C22.5536 23.5961 19.0006 27.0946 14.6093 27.0763C10.2909 27.0581 6.79248 23.505 6.79248 19.1684ZM9.05188 19.2049C9.05188 22.3024 11.621 24.8716 14.7186 24.8534C17.798 24.8351 20.3125 22.3206 20.3489 19.2413C20.3853 16.162 17.8162 13.5746 14.7186 13.5563C11.6028 13.5381 9.05188 16.0891 9.05188 19.2049Z" fill="#F1897B"/>
<path d="M51.1065 19.5508C51.6531 20.0974 52.1633 20.5894 52.6917 21.1178C51.234 22.6666 49.3937 22.6666 47.4805 22.539C47.4805 21.8284 47.4805 21.136 47.4805 20.3707C48.7013 20.2614 50.0496 20.5894 51.1065 19.5508Z" fill="#F1897B"/>
<path d="M46.2594 18.0555C45.6399 18.0373 45.1479 17.5271 45.1479 16.9076C45.1662 16.2881 45.6764 15.8143 46.2959 15.8325C46.9154 15.8508 47.4074 16.3609 47.4074 16.9622C47.4074 17.5635 46.8789 18.0737 46.2594 18.0555Z" fill="#F1897B"/>
<path d="M53.074 15.8325C53.7118 15.8507 54.1855 16.3427 54.1673 16.9804C54.1491 17.6 53.6753 18.0555 53.074 18.0555C52.4363 18.0555 51.9443 17.5635 51.9443 16.944C51.9443 16.3063 52.4363 15.8143 53.074 15.8325Z" fill="#F1897B"/>
</svg>
