<svg width="70" height="70" viewBox="0 0 70 70" fill="none" xmlns="http://www.w3.org/2000/svg">
<circle cx="35" cy="35" r="35" fill="#58BEBF" fill-opacity="0.2"/>
<path d="M20.9787 15C30.3096 15 39.6404 15 48.9712 15C48.9712 15.1749 48.9837 15.3374 48.9837 15.5123C48.9837 27.1587 48.9837 38.8176 48.9837 50.4639C48.9837 50.6389 48.9837 50.8138 48.9837 51.0137C51.035 51.0137 53.0113 51.0137 55 51.0137C55 52.3383 55 53.6754 55 55C41.6667 55 28.3333 55 15 55C15 53.6504 15 52.3383 15 50.9888C17.0013 50.9888 18.9775 50.9888 20.9787 50.9888C20.9787 50.7888 20.9787 50.6139 20.9787 50.4514C20.9787 38.8051 20.9787 27.1587 20.9787 15.5123C20.9662 15.3374 20.9662 15.1624 20.9787 15ZM38.94 50.9763C38.94 48.3146 38.94 45.6654 38.94 43.0162C36.2758 43.0162 33.6366 43.0162 30.9975 43.0162C30.9975 45.6779 30.9975 48.3146 30.9975 50.9763C33.6492 50.9763 36.2883 50.9763 38.94 50.9763ZM32.9862 38.955C34.3371 38.955 35.6504 38.955 36.9512 38.955C36.9512 37.6179 36.9512 36.3183 36.9512 35.0187C35.6129 35.0187 34.3121 35.0187 32.9862 35.0187C32.9862 36.3433 32.9862 37.6429 32.9862 38.955ZM32.9862 22.96C34.3121 22.96 35.6254 22.96 36.9512 22.96C36.9512 21.6354 36.9512 20.3233 36.9512 19.0112C35.6129 19.0112 34.3121 19.0112 32.9862 19.0112C32.9862 20.3483 32.9862 21.6479 32.9862 22.96ZM36.9512 30.9825C36.9512 29.6579 36.9512 28.3458 36.9512 27.0337C35.6129 27.0337 34.3121 27.0337 32.9987 27.0337C32.9987 28.3708 32.9987 29.6704 32.9987 30.9825C34.3246 30.9825 35.6254 30.9825 36.9512 30.9825ZM24.9812 19.0112C24.9812 20.3358 24.9812 21.6479 24.9812 22.9725C26.3071 22.9725 27.6079 22.9725 28.9337 22.9725C28.9337 21.6479 28.9337 20.3358 28.9337 19.0112C27.6204 19.0112 26.3196 19.0112 24.9812 19.0112ZM41.0038 19.0112C41.0038 20.3358 41.0038 21.6354 41.0038 22.9725C42.3296 22.9725 43.6304 22.9725 44.9562 22.9725C44.9562 21.6479 44.9562 20.3358 44.9562 19.0112C43.6304 19.0112 42.3296 19.0112 41.0038 19.0112ZM28.9337 30.97C28.9337 29.6454 28.9337 28.3458 28.9337 27.0087C27.6079 27.0087 26.3071 27.0087 24.9812 27.0087C24.9812 28.3333 24.9812 29.6454 24.9812 30.97C26.3071 30.97 27.6079 30.97 28.9337 30.97ZM44.9562 27.0212C43.6179 27.0212 42.3171 27.0212 41.0038 27.0212C41.0038 28.3583 41.0038 29.6579 41.0038 30.97C42.3296 30.97 43.6429 30.97 44.9562 30.97C44.9562 29.6454 44.9562 28.3583 44.9562 27.0212ZM24.9812 35.0062C24.9812 36.3433 24.9812 37.6429 24.9812 38.955C26.3071 38.955 27.6204 38.955 28.9337 38.955C28.9337 37.6304 28.9337 36.3183 28.9337 35.0062C27.6204 35.0062 26.3196 35.0062 24.9812 35.0062ZM44.9437 38.9675C44.9437 37.6179 44.9437 36.3183 44.9437 35.0187C43.6179 35.0187 42.3046 35.0187 41.0038 35.0187C41.0038 36.3433 41.0038 37.6554 41.0038 38.9675C42.3296 38.9675 43.6304 38.9675 44.9437 38.9675Z" fill="#58BEBF"/>
</svg>
