<svg width="70" height="70" viewBox="0 0 70 70" fill="none" xmlns="http://www.w3.org/2000/svg">
<circle cx="35" cy="35" r="35" fill="#58BEBF" fill-opacity="0.2"/>
<path d="M34.8438 15C34.9453 15 35.0547 15 35.1562 15C35.7031 15.1953 36.2422 15.3984 36.7969 15.5781C42.8672 17.5469 48.9375 19.5156 55 21.4844C55 32.6562 55 43.8281 55 55C53.4375 55 51.875 55 50.3125 55C50.3125 45.6094 50.3125 36.2188 50.3125 26.8203C40.0781 26.8203 29.8906 26.8203 19.6875 26.8203C19.6875 36.2266 19.6875 45.6172 19.6875 55C18.125 55 16.5625 55 15 55C15 43.8281 15 32.6562 15 21.4844C21.2266 19.4609 27.4609 17.4453 33.6875 15.4219C34.0781 15.2969 34.4609 15.1406 34.8438 15Z" fill="#58BEBF"/>
<path d="M22.0312 55C22.0312 51.0859 22.0312 47.1719 22.0312 43.2266C25.9609 43.2266 29.8672 43.2266 33.8281 43.2266C33.8281 47.1484 33.8281 51.0703 33.8281 55C29.8984 55 25.9609 55 22.0312 55Z" fill="#58BEBF"/>
<path d="M36.1719 55C36.1719 51.0859 36.1719 47.1719 36.1719 43.2266C40.1016 43.2266 44.0078 43.2266 47.9688 43.2266C47.9688 47.1484 47.9688 51.0703 47.9688 55C44.0391 55 40.1016 55 36.1719 55Z" fill="#58BEBF"/>
<path d="M47.9531 29.1641C47.9531 29.9375 47.9531 30.6875 47.9531 31.4609C39.3125 31.4609 30.6953 31.4609 22.0547 31.4609C22.0547 30.6953 22.0547 29.9453 22.0547 29.1641C30.6719 29.1641 39.2969 29.1641 47.9531 29.1641Z" fill="#58BEBF"/>
<path d="M22.0469 36.1406C22.0469 35.3594 22.0469 34.6094 22.0469 33.8438C30.6797 33.8438 39.2891 33.8438 47.9375 33.8438C47.9375 34.5938 47.9375 35.3594 47.9375 36.1406C39.3203 36.1406 30.7031 36.1406 22.0469 36.1406Z" fill="#58BEBF"/>
<path d="M47.9531 38.5391C47.9531 39.3125 47.9531 40.0625 47.9531 40.8359C39.3125 40.8359 30.6953 40.8359 22.0547 40.8359C22.0547 40.0703 22.0547 39.3203 22.0547 38.5391C30.6719 38.5391 39.2969 38.5391 47.9531 38.5391Z" fill="#58BEBF"/>
</svg>
