<svg width="70" height="70" viewBox="0 0 70 70" fill="none" xmlns="http://www.w3.org/2000/svg">
<circle cx="35" cy="35" r="35" fill="#58BEBF" fill-opacity="0.2"/>
<path d="M42.9653 15C45.6471 15 48.3289 15 51.0107 15C51.0107 15.04 50.9973 15.08 50.9973 15.12C50.9973 20.3049 50.9973 25.4898 50.9973 30.6881C50.9973 30.7814 51.0107 30.888 51.0374 31.0213C52.3716 31.0213 53.6791 31.0213 55 31.0213C55 39.0187 55 47.0027 55 55C48.3422 55 41.6711 55 34.96 55C34.96 49.6285 34.96 44.3236 34.96 39.0187C29.6097 39.0187 24.2995 39.0187 18.9626 39.0187C18.9626 44.3502 18.9626 49.6551 18.9626 54.9734C17.6151 54.9734 16.3075 54.9734 15 54.9734C15 46.976 15 39.0053 15 31.008C20.3369 31.008 25.6471 31.008 30.9973 31.008C30.9973 27.6624 30.9973 24.3569 30.9973 21.038C33.6791 21.038 36.3209 21.038 39.0027 21.038C39.0027 24.3702 39.0027 27.6891 39.0027 30.9947C40.3502 30.9947 41.6444 30.9947 42.992 30.9947C42.992 30.8214 42.992 30.6614 42.992 30.5148C42.992 25.4898 42.992 20.4648 42.992 15.4399C42.992 15.2799 42.9787 15.1333 42.9653 15ZM42.9653 42.964C42.9653 41.6178 42.9653 40.3249 42.9653 39.0053C41.6311 39.0053 40.3235 39.0053 39.016 39.0053C39.016 40.3382 39.016 41.6445 39.016 42.964C40.3502 42.964 41.6444 42.964 42.9653 42.964ZM50.9973 39.0053C49.6498 39.0053 48.3556 39.0053 47.0347 39.0053C47.0347 40.3382 47.0347 41.6445 47.0347 42.9507C48.3689 42.9507 49.6764 42.9507 50.9973 42.9507C50.9973 41.6178 50.9973 40.3249 50.9973 39.0053ZM42.9653 50.9613C42.9653 49.6285 42.9653 48.3356 42.9653 47.016C41.6311 47.016 40.3235 47.016 39.016 47.016C39.016 48.3489 39.016 49.6551 39.016 50.9613C40.3502 50.9613 41.6444 50.9613 42.9653 50.9613ZM47.0347 47.0027C47.0347 48.3489 47.0347 49.6418 47.0347 50.9613C48.3689 50.9613 49.6765 50.9613 50.984 50.9613C50.984 49.6285 50.984 48.3222 50.984 47.0027C49.6631 47.0027 48.3556 47.0027 47.0347 47.0027Z" fill="#58BEBF"/>
<path d="M30.9839 42.9766C30.9839 46.9886 30.9839 50.9472 30.9839 54.9459C28.3421 54.9459 25.687 54.9459 22.9919 54.9459C22.9919 54.8126 22.9919 54.6793 22.9919 54.546C22.9919 50.8406 22.9919 47.1352 22.9785 43.4297C22.9785 43.0699 23.0853 42.9766 23.4322 42.9766C25.8071 42.9899 28.1686 42.9899 30.5436 42.9899C30.677 42.9766 30.8237 42.9766 30.9839 42.9766Z" fill="#58BEBF"/>
</svg>
