<svg width="56" height="56" viewBox="0 0 56 56" fill="none" xmlns="http://www.w3.org/2000/svg">
<path d="M26.0285 50.9776C25.3445 50.9215 24.6605 50.8542 23.9765 50.8094C20.792 50.5515 17.6636 50.0469 14.636 49.0041C12.8644 48.3986 11.16 47.6361 9.73593 46.369C9.01829 45.7299 8.45764 44.9786 8.18853 44.0591C7.67273 42.3547 8.2558 40.9419 9.44439 39.7421C10.6442 38.5199 12.1467 37.7798 13.7053 37.1743C15.791 36.367 17.9439 35.8399 20.1416 35.4699C20.2426 35.4587 20.3323 35.4251 20.4668 35.3914C20.3883 35.2457 20.3323 35.1335 20.2538 35.0214C18.7064 32.6106 17.1365 30.211 15.6228 27.7666C13.6605 24.6045 12.9429 21.1621 13.6044 17.4954C14.5575 12.2253 17.4954 8.39039 22.3955 6.28234C27.4413 4.11822 32.3414 4.71251 36.8267 7.91944C39.9439 10.1396 41.8725 13.1896 42.6462 16.9235C43.4424 20.7696 42.8032 24.4138 40.7176 27.7666C39.2038 30.1998 37.634 32.5994 36.0866 35.0214C36.0193 35.1335 35.9633 35.2457 35.8736 35.3914C36.7706 35.5708 37.634 35.7278 38.4862 35.9297C40.9194 36.5015 43.3078 37.2079 45.4383 38.5759C46.6157 39.3272 47.6248 40.2355 48.107 41.6147C48.5892 42.9827 48.3313 44.2385 47.5127 45.3823C46.6829 46.5484 45.5168 47.2997 44.2721 47.9388C41.7156 49.2396 38.9684 49.9348 36.1539 50.3496C34.3374 50.6188 32.4984 50.7309 30.6707 50.9215C30.5249 50.9327 30.3792 50.9664 30.2334 51C28.843 50.9776 27.4301 50.9776 26.0285 50.9776ZM28.1702 42.3996C28.2935 42.209 28.3945 42.0744 28.4729 41.9399C31.6911 36.894 34.9092 31.8369 38.1498 26.791C40.7176 22.7992 41.054 18.6391 38.9347 14.4118C36.9949 10.5321 33.7431 8.26705 29.4148 7.82974C24.8399 7.37001 21.1396 9.10803 18.3924 12.7747C15.4882 16.6544 15.2976 22.2497 17.899 26.3201C19.9734 29.5719 22.0591 32.8124 24.1335 36.053C25.4678 38.1498 26.8022 40.2467 28.1702 42.3996ZM28.1702 48.3425C29.8521 48.2304 31.5453 48.1631 33.2161 48.0061C36.1427 47.7482 39.0132 47.1876 41.7492 46.0999C43.0051 45.6065 44.2273 45.0347 45.1468 44.0031C45.842 43.2294 45.8868 42.5005 45.1243 41.7941C44.4403 41.1662 43.6666 40.5831 42.8481 40.1682C40.213 38.8338 37.3537 38.2956 34.4607 37.9144C34.3486 37.9032 34.1692 38.0265 34.0907 38.1386C33.5525 38.9572 33.0254 39.7982 32.4984 40.6279C31.4668 42.2538 30.4352 43.8797 29.3924 45.5056C28.899 46.2681 28.0356 46.4811 27.3965 45.9878C27.1947 45.8308 27.0265 45.6065 26.8807 45.3823C25.3557 42.9939 23.8307 40.6055 22.3058 38.2059C22.16 37.9816 22.0366 37.8695 21.7339 37.9256C21.0948 38.0601 20.4332 38.1162 19.794 38.2395C17.4281 38.6769 15.0846 39.2487 12.9765 40.4597C12.3037 40.841 11.6758 41.3568 11.1263 41.9174C10.5096 42.5454 10.5433 43.2518 11.1263 43.9246C11.4179 44.261 11.7543 44.5637 12.1131 44.8216C13.5259 45.8084 15.1294 46.3914 16.7665 46.8512C20.5005 47.9052 24.3129 48.2528 28.1702 48.3425Z" fill="#F1897B"/>
<path d="M28.1703 13.2129C31.8706 13.2017 34.9093 16.2404 34.9093 19.9408C34.9093 23.6411 31.8706 26.6798 28.1703 26.6686C24.4812 26.6574 21.4649 23.6523 21.4536 19.9632C21.4424 16.2629 24.47 13.2241 28.1703 13.2129ZM28.1142 23.9662C30.2895 24.0223 32.1397 22.2394 32.207 20.008C32.2742 17.8327 30.5026 15.9825 28.26 15.9041C26.0846 15.8256 24.1896 17.6421 24.1448 19.8847C24.0999 22.06 25.894 23.9102 28.1142 23.9662Z" fill="#F1897B"/>
</svg>
