<svg width="104" height="86" viewBox="0 0 104 86" fill="none" xmlns="http://www.w3.org/2000/svg">
<path d="M69.9834 45.36C69.6321 43.8668 69.4516 42.1779 69.4516 40.2857C69.4516 34.3468 71.7065 28.4545 76.3268 22.5922C81.1762 16.7121 86.8511 12.4254 93.3533 9.70841L94.3422 9.29518L93.8615 8.33723L90.9583 2.55151L90.5248 1.68763L89.6467 2.09147C78.3277 7.29699 69.7793 14.2664 64.0657 23.0251L64.0608 23.0325L64.0561 23.0401C58.5739 31.7803 55.8387 41.6093 55.8387 52.5C55.8387 61.0035 57.6996 68.2694 61.4761 74.2467C65.968 81.4073 72.6391 85 81.3549 85C87.4075 85 92.5058 82.9791 96.5768 78.9227C100.852 74.663 103 69.4792 103 63.4286C103 56.9823 100.872 51.7724 96.5572 47.915C92.4894 43.8715 87.3978 41.8571 81.3549 41.8571C77.1263 41.8571 73.3262 43.0257 69.9834 45.36ZM15.1447 45.36C14.7934 43.8668 14.6129 42.1779 14.6129 40.2857C14.6129 34.3468 16.8679 28.4544 21.4882 22.592C26.3375 16.712 32.0124 12.4254 38.5146 9.70841L39.5035 9.29518L39.0228 8.33723L36.1196 2.55151L35.6861 1.68763L34.808 2.09147C23.4889 7.29699 14.9405 14.2664 9.22697 23.0251L9.2221 23.0325L9.21737 23.0401C3.73517 31.7803 1 41.6093 1 52.5C1 61.0036 2.86099 68.2696 6.63761 74.2471C11.1295 81.4074 17.8005 85 26.5161 85C32.5688 85 37.6671 82.9791 41.7381 78.9227C46.0131 74.663 48.1613 69.4792 48.1613 63.4286C48.1613 56.9823 46.0333 51.7724 41.7184 47.9149C37.6507 43.8715 32.5591 41.8571 26.5161 41.8571C22.2876 41.8571 18.4875 43.0257 15.1447 45.36Z" stroke="url(#paint0_linear_27_776)" stroke-width="2"/>
<defs>
<linearGradient id="paint0_linear_27_776" x1="1.75006" y1="56.4086" x2="122.357" y2="73.9687" gradientUnits="userSpaceOnUse">
<stop stop-color="#F1897B"/>
<stop offset="1" stop-color="#F1897B" stop-opacity="0"/>
</linearGradient>
</defs>
</svg>
